<svg version="1.1" viewBox="310.0 200.0 370.0 130.0" fill="none" stroke="none" stroke-linecap="square" stroke-miterlimit="10" xmlns:xlink="http://www.w3.org/1999/xlink" xmlns="http://www.w3.org/2000/svg"><clipPath id="p.0"><path d="m0 0l960.0 0l0 540.0l-960.0 0l0 -540.0z" clip-rule="nonzero"/></clipPath><g clip-path="url(#p.0)"><path fill="#ffffff" d="m0 0l960.0 0l0 540.0l-960.0 0z" fill-rule="evenodd"/><path fill="#000000" fill-opacity="0.0" d="m266.4252 184.66142l460.189 0l0 172.06297l-460.189 0z" fill-rule="evenodd"/><path fill="#b7b7b7" d="m360.56326 260.65018l-8.484375 0l0 8.5l-4.5 0l0 -8.5l-9.828125 0l0 8.5l-4.5 0l0 -8.5l-8.484375 0l0 -4.21875l8.484375 0l0 -10.14064l-8.484375 0l0 -4.1875l8.484375 0l0 -8.75l4.5 0l0 8.75l9.828125 0l0 -8.75l4.5 0l0 8.75l8.484375 0l0 4.1875l-8.484375 0l0 10.14064l8.484375 0l0 4.21875zm-12.984375 -4.21875l0 -10.14064l-9.828125 0l0 10.14064l9.828125 0z" fill-rule="nonzero"/><path fill="#0b5394" d="m403.5016 269.18143l-5.265625 0l0 -25.73439q0 -3.078125 -1.078125 -4.765625q-1.078125 -1.6875 -3.109375 -1.6875q-3.0 0 -4.40625 3.15625q-1.390625 3.140625 -1.390625 8.828125l0 20.20314l-5.296875 0l0 -25.73439q0 -3.078125 -1.09375 -4.765625q-1.09375 -1.6875 -3.140625 -1.6875q-1.875 0 -3.0 1.125q-1.109375 1.109375 -1.75 2.84375q-0.625 1.71875 -0.8125 3.828125q-0.1875 2.109375 -0.1875 4.1875l0 20.20314l-5.265625 0l0 -35.79689l5.265625 0l0 5.1875q1.640625 -6.03125 7.171875 -6.03125q5.265625 0 7.15625 5.265625q2.609375 -5.265625 7.375 -5.265625q4.5625 0 6.6875 2.71875q2.140625 2.703125 2.140625 8.1875l0 25.73439zm7.063324 -9.671875q0 -3.390625 1.6875 -5.6718903q1.6875 -2.28125 4.4375 -3.609375q2.75 -1.328125 6.296875 -1.921875q3.5625 -0.59375 7.25 -0.59375q1.421875 0 2.546875 0.046875q1.140625 0.03125 2.15625 0.109375q1.015625 0.078125 2.046875 0.1875q1.046875 0.109375 2.265625 0.265625l0 -2.5625q0 -2.625 -1.140625 -4.3125q-1.125 -1.6875 -2.78125 -2.65625q-1.640625 -0.984375 -3.453125 -1.390625q-1.796875 -0.40625 -3.0625 -0.40625q-4.0 0 -7.390625 1.078125q-3.375 1.078125 -6.28125 2.875l-2.390625 -3.953125q3.234375 -1.953125 7.234375 -3.203125q4.015625 -1.25 8.828125 -1.25q2.90625 0 5.734375 0.75q2.828125 0.75 5.0625 2.3125q2.25 1.546875 3.59375 4.078125q1.34375 2.53125 1.34375 6.078125l0 23.42189l-5.296875 0l0 -5.984375q-1.375 1.71875 -3.125 3.03125q-1.75 1.296875 -3.671875 2.125q-1.921875 0.828125 -3.84375 1.265625q-1.921875 0.453125 -3.640625 0.453125q-7.109375 0 -10.765625 -2.734375q-3.640625 -2.734375 -3.640625 -7.828125zm14.40625 6.0625q3.296875 0 5.921875 -0.96875q2.640625 -0.984375 4.484375 -2.4375q1.84375 -1.46875 2.859375 -3.125q1.015625 -1.65625 1.015625 -3.0l0 -3.3750153q-2.5625 -0.390625 -4.9375 -0.421875q-2.359375 -0.03125 -4.078125 -0.03125q-2.84375 0 -5.484375 0.390625q-2.625 0.375 -4.59375 1.234375q-1.953125 0.859375 -3.140625 2.2500153q-1.1875 1.375 -1.1875 3.421875q0 2.265625 2.203125 4.171875q2.21875 1.890625 6.9375 1.890625zm62.51645 3.609375l-5.296875 0l0 -3.296875q-2.265625 2.03125 -4.96875 3.109375q-2.703125 1.078125 -5.546875 1.078125q-4.265625 0 -7.65625 -1.375q-3.375 -1.390625 -5.703125 -3.875q-2.3125 -2.484375 -3.5625 -5.9375q-1.25 -3.4531403 -1.25 -7.5625153q0 -4.078125 1.25 -7.546875q1.25 -3.46875 3.5625 -5.953125q2.328125 -2.484375 5.703125 -3.875q3.390625 -1.40625 7.65625 -1.40625q2.84375 0 5.546875 1.015625q2.703125 1.015625 4.96875 3.0625l0 -13.0625l-7.140625 0l0 -4.5l12.4375 0l0 50.125015zm-5.296875 -27.45314q-2.265625 -2.5 -4.9375 -3.609375q-2.65625 -1.125 -5.65625 -1.125q-3.15625 0 -5.5625 1.125q-2.390625 1.109375 -4.0 3.03125q-1.609375 1.921875 -2.4375 4.515625q-0.828125 2.578125 -0.828125 5.65625q0 3.078125 0.828125 5.6718903q0.828125 2.578125 2.4375 4.5q1.609375 1.921875 4.0 3.046875q2.40625 1.109375 5.5625 1.109375q6.0625 0 10.59375 -4.796875l0 -19.125015zm48.23517 27.45314l-5.296875 0l0 -22.07814q0 -4.8125 -2.078125 -7.453125q-2.0625 -2.65625 -6.71875 -2.65625q-2.90625 0 -5.2812195 1.34375q-2.359375 1.34375 -4.015625 3.59375q-1.640625 2.25 -2.515625 5.15625q-0.859375 2.890625 -0.859375 6.046875l0 16.04689l-5.265625 0l0 -35.79689l5.265625 0l0 8.984375q3.8125 -9.828125 13.5624695 -9.828125q13.203125 0 13.203125 14.5625l0 22.07814zm14.2977295 -16.04689q0.578125 5.6718903 4.140625 9.062515q3.578125 3.375 9.296875 3.375q4.03125 0 7.171875 -1.640625q3.15625 -1.65625 4.734375 -4.125l3.6875 2.53125q-2.6875 3.765625 -6.421875 5.75q-3.71875 1.984375 -9.171875 1.984375q-4.140625 0 -7.609375 -1.375q-3.453125 -1.390625 -5.96875 -3.875q-2.515625 -2.484375 -3.90625 -5.890625q-1.375 -3.4218903 -1.375 -7.6093903q0 -4.078125 1.25 -7.515625q1.25 -3.4375 3.609375 -5.953125q2.359375 -2.515625 5.734375 -3.90625q3.390625 -1.40625 7.578125 -1.40625q4.5625 0 7.984375 1.546875q3.421875 1.53125 5.703125 4.234375q2.28125 2.703125 3.375 6.46875q1.09375 3.765625 1.09375 8.34375l-30.90625 0zm25.34375 -4.5q-0.890625 -5.875 -4.265625 -8.75q-3.375 -2.890625 -8.328125 -2.890625q-2.53125 0 -4.6875 0.828125q-2.15625 0.828125 -3.8125 2.375q-1.640625 1.53125 -2.765625 3.703125q-1.109375 2.15625 -1.40625 4.734375l25.265625 0zm47.157043 10.64064q0 3.140625 -1.578125 5.21875q-1.5625 2.078125 -4.046875 3.3125q-2.46875 1.21875 -5.53125 1.734375q-3.046875 0.53125 -5.96875 0.53125q-4.875 0 -9.71875 -1.421875q-4.828125 -1.421875 -8.375 -3.734375l2.34375 -4.53125q3.96875 2.5 7.796875 3.84375q3.84375 1.34375 7.953125 1.34375q11.875 0 11.875 -6.140625q0 -1.5 -0.984375 -2.4375q-0.984375 -0.953125 -2.640625 -1.5468903q-1.640625 -0.59375 -3.78125 -0.9375q-2.125 -0.34375 -4.46875 -0.65625q-3.0 -0.421875 -5.953125 -1.0q-2.953125 -0.578125 -5.390625 -1.71875q-2.4375 -1.15625 -3.921875 -3.078125q-1.484375 -1.921875 -1.484375 -5.0625q0 -2.6875 1.359375 -4.640625q1.375 -1.96875 3.65625 -3.265625q2.28125 -1.3125 5.359375 -1.921875q3.078125 -0.625 6.375 -0.625q4.71875 0 8.4375 1.09375q3.734375 1.09375 6.734375 3.125l-2.109375 4.109375q-3.078125 -2.140625 -6.234375 -3.0q-3.140625 -0.875 -6.828125 -0.875q-1.65625 0 -3.671875 0.296875q-2.015625 0.28125 -3.75 1.0q-1.71875 0.703125 -2.890625 1.84375q-1.171875 1.125 -1.171875 2.859375q0 1.5 0.984375 2.40625q0.984375 0.890625 2.625 1.484375q1.65625 0.59375 3.78125 0.9375q2.140625 0.34375 4.484375 0.65625q2.921875 0.421875 5.890625 1.0q2.984375 0.578125 5.421875 1.6875q2.4375 1.109375 3.921875 3.03125q1.5 1.9218903 1.5 5.0781403zm42.938354 0q0 3.140625 -1.578125 5.21875q-1.5625 2.078125 -4.046875 3.3125q-2.46875 1.21875 -5.53125 1.734375q-3.046875 0.53125 -5.96875 0.53125q-4.875 0 -9.71875 -1.421875q-4.828125 -1.421875 -8.375 -3.734375l2.34375 -4.53125q3.96875 2.5 7.796875 3.84375q3.84375 1.34375 7.953125 1.34375q11.875 0 11.875 -6.140625q0 -1.5 -0.984375 -2.4375q-0.984375 -0.953125 -2.640625 -1.5468903q-1.640625 -0.59375 -3.78125 -0.9375q-2.125 -0.34375 -4.46875 -0.65625q-3.0 -0.421875 -5.953125 -1.0q-2.953125 -0.578125 -5.390625 -1.71875q-2.4375 -1.15625 -3.921875 -3.078125q-1.484375 -1.921875 -1.484375 -5.0625q0 -2.6875 1.359375 -4.640625q1.375 -1.96875 3.65625 -3.265625q2.28125 -1.3125 5.359375 -1.921875q3.078125 -0.625 6.375 -0.625q4.71875 0 8.4375 1.09375q3.734375 1.09375 6.734375 3.125l-2.109375 4.109375q-3.078125 -2.140625 -6.234375 -3.0q-3.140625 -0.875 -6.828125 -0.875q-1.65625 0 -3.671875 0.296875q-2.015625 0.28125 -3.75 1.0q-1.71875 0.703125 -2.890625 1.84375q-1.171875 1.125 -1.171875 2.859375q0 1.5 0.984375 2.40625q0.984375 0.890625 2.625 1.484375q1.65625 0.59375 3.78125 0.9375q2.140625 0.34375 4.484375 0.65625q2.921875 0.421875 5.890625 1.0q2.984375 0.578125 5.421875 1.6875q2.4375 1.109375 3.921875 3.03125q1.5 1.9218903 1.5 5.0781403z" fill-rule="nonzero"/><path fill="#434343" d="m333.01642 310.70142l-3.46875 0l0 -16.796875l3.46875 0l0 16.796875zm16.558716 0l-3.359375 0l0 -7.5625q0 -1.71875 -0.859375 -2.46875q-0.859375 -0.765625 -2.5 -0.765625l-3.109375 0l0 10.796875l-3.359375 0l0 -12.484375l6.46875 0q3.4375 0 5.078125 1.234375q1.640625 1.234375 1.640625 3.6875l0 7.5625zm6.127472 -9.84375q0 0.5625 0.484375 1.015625q0.5 0.453125 1.671875 0.78125l3.71875 1.09375q1.734375 0.5 2.671875 1.359375q0.9375 0.859375 0.9375 2.234375q0 0.859375 -0.375 1.578125q-0.359375 0.703125 -1.171875 1.203125q-0.8125 0.5 -2.109375 0.78125q-1.296875 0.28125 -3.1875 0.28125q-0.984375 0 -1.9375 -0.15625q-0.953125 -0.140625 -1.8125 -0.390625q-0.84375 -0.25 -1.546875 -0.5625q-0.6875 -0.328125 -1.1875 -0.6875l0.96875 -1.453125q1.0 0.625 2.359375 1.09375q1.359375 0.46875 3.15625 0.46875q1.796875 0 2.515625 -0.46875q0.71875 -0.484375 0.71875 -1.203125q0 -0.5625 -0.5 -1.0q-0.5 -0.4375 -1.78125 -0.8125l-3.71875 -1.078125q-1.53125 -0.453125 -2.515625 -1.296875q-0.96875 -0.859375 -0.96875 -2.296875q0 -0.765625 0.34375 -1.421875q0.359375 -0.671875 1.09375 -1.140625q0.75 -0.484375 1.90625 -0.75q1.15625 -0.28125 2.78125 -0.28125q2.0 0 3.609375 0.546875q1.625 0.53125 2.625 1.25l-0.953125 1.4375q-0.984375 -0.625 -2.234375 -1.09375q-1.25 -0.46875 -3.046875 -0.46875q-1.265625 0 -1.890625 0.40625q-0.625 0.40625 -0.625 1.03125zm12.483093 -0.953125l-2.28125 0l0 -1.6875l2.28125 0l0 -3.828125l3.359375 0l0 3.828125l3.71875 0l0 1.6875l-3.71875 0l0 6.234375q0 0.921875 0.203125 1.5625q0.203125 0.625 0.546875 1.03125q0.34375 0.390625 0.796875 0.578125q0.46875 0.1875 0.96875 0.1875q0.71875 0 1.390625 -0.21875q0.671875 -0.234375 1.125 -0.5l0.71875 1.5625q-0.71875 0.359375 -1.640625 0.59375q-0.921875 0.25 -1.828125 0.25q-2.71875 0 -4.1875 -1.34375q-1.453125 -1.34375 -1.453125 -3.703125l0 -6.234375zm13.311829 6.84375q0 2.265625 2.765625 2.265625l3.359375 0l0 -4.546875l-3.359375 0q-2.765625 0 -2.765625 2.28125zm6.125 -3.96875q0 -1.71875 -0.90625 -2.53125q-0.890625 -0.828125 -2.34375 -0.828125q-1.078125 0 -2.109375 0.328125q-1.03125 0.328125 -1.84375 0.875l-0.84375 -1.4375q0.53125 -0.359375 1.15625 -0.625q0.640625 -0.265625 1.3125 -0.4375q0.671875 -0.1875 1.328125 -0.28125q0.671875 -0.09375 1.25 -0.09375q1.53125 0 2.703125 0.359375q1.1875 0.359375 2.0 1.03125q0.8125 0.671875 1.234375 1.59375q0.421875 0.921875 0.421875 2.046875l0 7.921875l-6.71875 0q-3.265625 0 -4.8125 -0.984375q-1.546875 -0.984375 -1.546875 -2.96875q0 -2.0 1.546875 -2.984375q1.546875 -0.984375 4.8125 -0.984375l3.359375 0zm19.79245 7.921875l-3.359375 0l0 -7.5625q0 -1.71875 -0.859375 -2.46875q-0.859375 -0.765625 -2.5 -0.765625l-3.109375 0l0 10.796875l-3.359375 0l0 -12.484375l6.46875 0q3.4375 0 5.078125 1.234375q1.640625 1.234375 1.640625 3.6875l0 7.5625zm3.850586 -10.796875l-2.28125 0l0 -1.6875l2.28125 0l0 -3.828125l3.359375 0l0 3.828125l3.71875 0l0 1.6875l-3.71875 0l0 6.234375q0 0.921875 0.203125 1.5625q0.203125 0.625 0.546875 1.03125q0.34375 0.390625 0.796875 0.578125q0.46875 0.1875 0.96875 0.1875q0.71875 0 1.390625 -0.21875q0.671875 -0.234375 1.125 -0.5l0.71875 1.5625q-0.71875 0.359375 -1.640625 0.59375q-0.921875 0.25 -1.828125 0.25q-2.71875 0 -4.1875 -1.34375q-1.453125 -1.34375 -1.453125 -3.703125l0 -6.234375zm30.832458 8.390625l0.234375 0l6.25 -14.390625l5.15625 0l0 16.796875l-3.484375 0l0 -13.4375l-0.234375 0l-5.765625 13.4375l-4.078125 0l-5.75 -13.4375l-0.25 0l0 13.4375l-3.46875 0l0 -16.796875l5.15625 0l6.234375 14.390625zm17.759277 -1.546875q0 2.265625 2.765625 2.265625l3.359375 0l0 -4.546875l-3.359375 0q-2.765625 0 -2.765625 2.28125zm6.125 -3.96875q0 -1.71875 -0.90625 -2.53125q-0.890625 -0.828125 -2.34375 -0.828125q-1.078125 0 -2.109375 0.328125q-1.03125 0.328125 -1.84375 0.875l-0.84375 -1.4375q0.53125 -0.359375 1.15625 -0.625q0.640625 -0.265625 1.3125 -0.4375q0.671875 -0.1875 1.328125 -0.28125q0.671875 -0.09375 1.25 -0.09375q1.53125 0 2.703125 0.359375q1.1875 0.359375 2.0 1.03125q0.8125 0.671875 1.234375 1.59375q0.421875 0.921875 0.421875 2.046875l0 7.921875l-6.71875 0q-3.265625 0 -4.8125 -0.984375q-1.546875 -0.984375 -1.546875 -2.96875q0 -2.0 1.546875 -2.984375q1.546875 -0.984375 4.8125 -0.984375l3.359375 0zm16.0737 -2.875l-2.875 0q-1.640625 0 -2.5 0.875q-0.859375 0.875 -0.859375 2.609375l0 7.3125l-3.359375 0l0 -7.3125q0 -2.453125 1.546875 -3.8125q1.546875 -1.359375 4.453125 -1.359375l3.59375 0l0 1.6875zm7.8062134 5.28125l-2.515625 0l0 5.515625l-3.359375 0l0 -16.796875l3.359375 0l0 9.59375l2.515625 0l3.71875 -5.28125l3.59375 0l-4.1875 6.0l4.4375 6.484375l-3.84375 0l-3.71875 -5.515625zm18.723724 3.828125l0 -9.109375l-3.0 0q-0.828125 0 -1.515625 0.25q-0.671875 0.25 -1.171875 0.8125q-0.484375 0.546875 -0.765625 1.40625q-0.265625 0.859375 -0.265625 2.09375q0 1.21875 0.265625 2.09375q0.28125 0.859375 0.765625 1.40625q0.5 0.546875 1.171875 0.796875q0.6875 0.25 1.515625 0.25l3.0 0zm-3.0 1.6875q-1.65625 0 -3.015625 -0.421875q-1.359375 -0.4375 -2.328125 -1.25q-0.953125 -0.828125 -1.46875 -1.96875q-0.515625 -1.15625 -0.515625 -2.59375q0 -1.453125 0.515625 -2.59375q0.515625 -1.15625 1.46875 -1.96875q0.96875 -0.8125 2.328125 -1.25q1.359375 -0.4375 3.015625 -0.4375l3.0 0l0 -4.3125l3.359375 0l0 16.796875l-6.359375 0zm16.439941 -1.078125q0.765625 0 1.4375 -0.28125q0.671875 -0.296875 1.171875 -0.90625q0.5 -0.609375 0.796875 -1.59375q0.3125 -0.984375 0.3125 -2.375q0 -1.390625 -0.3125 -2.375q-0.296875 -0.984375 -0.796875 -1.59375q-0.5 -0.625 -1.171875 -0.90625q-0.671875 -0.296875 -1.4375 -0.296875q-0.78125 0 -1.453125 0.296875q-0.671875 0.28125 -1.171875 0.90625q-0.5 0.609375 -0.796875 1.59375q-0.296875 0.984375 -0.296875 2.375q0 1.390625 0.296875 2.375q0.296875 0.984375 0.796875 1.59375q0.5 0.609375 1.171875 0.90625q0.671875 0.28125 1.453125 0.28125zm0 -11.875q1.609375 0 2.953125 0.4375q1.359375 0.4375 2.3125 1.296875q0.96875 0.84375 1.5 2.109375q0.546875 1.265625 0.546875 2.875q0 1.625 -0.546875 2.875q-0.53125 1.25 -1.5 2.109375q-0.953125 0.84375 -2.3125 1.28125q-1.34375 0.453125 -2.953125 0.453125q-1.640625 0 -2.984375 -0.453125q-1.34375 -0.4375 -2.3125 -1.28125q-0.953125 -0.859375 -1.5 -2.109375q-0.53125 -1.25 -0.53125 -2.875q0 -1.609375 0.53125 -2.875q0.546875 -1.265625 1.5 -2.109375q0.96875 -0.859375 2.3125 -1.296875q1.34375 -0.4375 2.984375 -0.4375zm23.507446 10.671875l0.25 0l2.75 -10.203125l3.484375 0l-3.359375 12.484375l-5.03125 0l-2.28125 -8.640625l-0.25 0l-2.28125 8.640625l-5.03125 0l-3.359375 -12.484375l3.46875 0l2.765625 10.203125l0.234375 0l2.40625 -9.0l3.84375 0l2.390625 9.0zm21.841187 2.28125l-3.359375 0l0 -7.5625q0 -1.71875 -0.859375 -2.46875q-0.859375 -0.765625 -2.5 -0.765625l-3.109375 0l0 10.796875l-3.359375 0l0 -12.484375l6.46875 0q3.4375 0 5.078125 1.234375q1.640625 1.234375 1.640625 3.6875l0 7.5625zm27.246216 -4.4375q0 1.03125 -0.4375 1.9375q-0.421875 0.890625 -1.40625 1.5625q-0.96875 0.65625 -2.515625 1.03125q-1.546875 0.390625 -3.796875 0.390625q-1.28125 0 -2.5 -0.203125q-1.203125 -0.1875 -2.296875 -0.546875q-1.09375 -0.359375 -2.015625 -0.875q-0.921875 -0.515625 -1.59375 -1.140625l1.203125 -1.4375q1.359375 1.171875 3.1875 1.796875q1.828125 0.609375 4.015625 0.609375q2.421875 0 3.421875 -0.671875q1.015625 -0.671875 1.015625 -1.859375q0 -0.90625 -0.796875 -1.53125q-0.796875 -0.625 -2.6875 -1.21875l-4.5625 -1.453125q-2.25 -0.71875 -3.40625 -1.828125q-1.15625 -1.109375 -1.15625 -2.84375q0 -0.890625 0.421875 -1.71875q0.421875 -0.828125 1.3125 -1.453125q0.890625 -0.640625 2.265625 -1.015625q1.390625 -0.375 3.328125 -0.375q1.171875 0 2.328125 0.203125q1.171875 0.1875 2.234375 0.546875q1.078125 0.359375 2.0 0.875q0.921875 0.515625 1.59375 1.140625l-1.203125 1.4375q-1.359375 -1.171875 -3.0625 -1.78125q-1.703125 -0.625 -3.890625 -0.625q-1.796875 0 -2.703125 0.625q-0.890625 0.625 -0.890625 1.546875q0 0.5 0.15625 0.875q0.171875 0.359375 0.5625 0.6875q0.40625 0.328125 1.046875 0.609375q0.65625 0.265625 1.609375 0.578125l4.53125 1.4375q2.1875 0.703125 3.4375 1.828125q1.25 1.125 1.25 2.859375zm9.593689 3.234375q1.1875 0 2.203125 -0.40625q1.015625 -0.40625 2.0 -1.15625l0.96875 1.453125q-0.46875 0.40625 -1.078125 0.75q-0.609375 0.328125 -1.328125 0.5625q-0.703125 0.21875 -1.46875 0.34375q-0.765625 0.140625 -1.53125 0.140625q-1.703125 0 -3.109375 -0.453125q-1.40625 -0.4375 -2.390625 -1.28125q-0.984375 -0.859375 -1.53125 -2.109375q-0.53125 -1.25 -0.53125 -2.875q0 -1.609375 0.515625 -2.875q0.515625 -1.265625 1.4375 -2.109375q0.921875 -0.859375 2.1875 -1.296875q1.28125 -0.4375 2.828125 -0.4375q1.4375 0 2.703125 0.4375q1.28125 0.421875 2.203125 1.25q0.9375 0.828125 1.484375 2.0q0.5625 1.171875 0.5625 2.671875l0 1.671875l-10.25 0q0.296875 2.0 1.375 2.859375q1.09375 0.859375 2.75 0.859375zm-0.828125 -10.203125q-0.703125 0 -1.3125 0.265625q-0.59375 0.265625 -1.046875 0.84375q-0.4375 0.578125 -0.71875 1.5q-0.265625 0.90625 -0.28125 2.203125l6.71875 0q0 -1.25 -0.296875 -2.15625q-0.28125 -0.921875 -0.75 -1.5q-0.46875 -0.59375 -1.09375 -0.875q-0.609375 -0.28125 -1.21875 -0.28125zm19.189331 0.609375l-2.875 0q-1.640625 0 -2.5 0.875q-0.859375 0.875 -0.859375 2.609375l0 7.3125l-3.359375 0l0 -7.3125q0 -2.453125 1.546875 -3.8125q1.546875 -1.359375 4.453125 -1.359375l3.59375 0l0 1.6875zm10.556213 10.796875l-5.265625 0l-4.8125 -12.484375l3.359375 0l3.96875 10.4375l0.234375 0l3.96875 -10.4375l3.359375 0l-4.8125 12.484375zm13.442444 -1.203125q1.1875 0 2.203125 -0.40625q1.015625 -0.40625 2.0 -1.15625l0.96875 1.453125q-0.46875 0.40625 -1.078125 0.75q-0.609375 0.328125 -1.328125 0.5625q-0.703125 0.21875 -1.46875 0.34375q-0.765625 0.140625 -1.53125 0.140625q-1.703125 0 -3.109375 -0.453125q-1.40625 -0.4375 -2.390625 -1.28125q-0.984375 -0.859375 -1.53125 -2.109375q-0.53125 -1.25 -0.53125 -2.875q0 -1.609375 0.515625 -2.875q0.515625 -1.265625 1.4375 -2.109375q0.921875 -0.859375 2.1875 -1.296875q1.28125 -0.4375 2.828125 -0.4375q1.4375 0 2.703125 0.4375q1.28125 0.421875 2.203125 1.25q0.9375 0.828125 1.484375 2.0q0.5625 1.171875 0.5625 2.671875l0 1.671875l-10.25 0q0.296875 2.0 1.375 2.859375q1.09375 0.859375 2.75 0.859375zm-0.828125 -10.203125q-0.703125 0 -1.3125 0.265625q-0.59375 0.265625 -1.046875 0.84375q-0.4375 0.578125 -0.71875 1.5q-0.265625 0.90625 -0.28125 2.203125l6.71875 0q0 -1.25 -0.296875 -2.15625q-0.28125 -0.921875 -0.75 -1.5q-0.46875 -0.59375 -1.09375 -0.875q-0.609375 -0.28125 -1.21875 -0.28125zm19.189331 0.609375l-2.875 0q-1.640625 0 -2.5 0.875q-0.859375 0.875 -0.859375 2.609375l0 7.3125l-3.359375 0l0 -7.3125q0 -2.453125 1.546875 -3.8125q1.546875 -1.359375 4.453125 -1.359375l3.59375 0l0 1.6875z" fill-rule="nonzero"/></g></svg>