<?xml version="1.0" encoding="utf-8"?>
<svg id="master-artboard" viewBox="0 0 1400 800" xmlns="http://www.w3.org/2000/svg" width="1400px" height="800px" version="1.1" style="shape-rendering:geometricPrecision; text-rendering:geometricPrecision; image-rendering:optimizeQuality; fill-rule:evenodd; clip-rule:evenodd"><defs><style id="ee-google-fonts">@import url(https://fonts.googleapis.com/css?family=Amatic+SC:400,700);</style></defs><rect id="ee-background" x="0" y="0" width="1400" height="800" style="fill: white; fill-opacity: 0; pointer-events: none;"/><g transform="matrix(4.239406044261451, 0, 0, 4.239406044261451, 2.723526328835426, -4.471118976145549)"><clipPath id="p.0"><path d="m0 0l960.0 0l0 540.0l-960.0 0l0 -540.0z" clip-rule="nonzero"/></clipPath><g clip-path="url(#p.0)"><path fill="#434343" d="m170.38472 24.46301l-5.5 1.03125q-9.859375 17.031248 -18.9375 45.828125q-3.46875 10.875 -9.734375 25.015625q-6.265625 14.140625 -13.953125 26.1875q-10.359375 16.125 -27.578125 26.546875q-17.21875 10.4375 -31.421875 12.359375q-6.53125 0.890625 -14.859375 0.890625q-8.3125 0 -17.140625 -2.9375q-13.828125 -4.609375 -18.953125 -15.109375q-2.296875 -4.859375 -2.296875 -11.390625q0 -6.53125 3.453125 -15.359375q2.4375 -5.890625 8.578126 -11.0q6.140625 -5.125 9.59375 -5.25q1.53125 -0.140625 1.53125 0.5q-0.125 0.515625 -1.65625 1.28125q-4.09375 1.671875 -9.09375 7.3125q-4.984375 5.625 -6.578126 11.3125q-1.609375 5.703125 -1.609375 8.765625q0 9.34375 5.000001 15.109375q3.453125 3.84375 8.5625 6.90625q5.125 3.078125 11.015625 4.234375q8.703125 1.65625 13.8125 1.65625q5.125 0 9.09375 -1.015625q8.703125 -1.921875 16.828125 -6.40625q8.140625 -4.484375 14.40625 -9.796875q6.28125 -5.3125 12.484375 -13.125q6.203125 -7.796875 10.421875 -14.1875q4.234375 -6.40625 8.96875 -15.375q7.671875 -14.578125 15.75 -33.53125q10.109375 -22.531254 20.46875 -38.90625q-17.78125 2.9375 -36.21875 12.796873q-9.34375 4.984375 -16.0 12.671875q-8.578125 9.734375 -8.578125 20.859379q0 6.015625 2.875 9.34375q2.890625 3.328125 6.078125 3.328125q3.203125 0 7.046875 -1.40625q3.84375 -1.40625 6.90625 -4.859375q4.875 -5.640625 4.875 -12.9375q0 -3.0625038 -0.90625 -4.093754q-1.53125 -1.015625 -0.25 -1.921875q1.40625 -0.765625 2.9375 0.90625q1.28125 2.8125 1.28125 6.593754q0 3.765625 -2.8125 8.640625q-4.734375 8.0625 -13.046875 11.0q-3.84375 1.28125 -7.296875 1.28125q-5.765625 0 -10.375 -3.71875q-5.890625 -4.859375 -5.890625 -13.046875q0 -10.375004 7.421875 -19.843754q5.640625 -7.296875 13.25 -12.03125q7.625 -4.734375 17.21875 -8.453123q15.484375 -6.015625 33.671875 -8.4375q1.53125 -2.5625 4.59375 -6.015625q3.078125 -3.453126 5.125 -4.093751q2.046875 -0.640625 3.328125 -0.640625q4.484375 0 4.484375 3.828125q-0.125 3.468751 -2.8125 5.328126q-2.6875 1.84375 -7.5625 3.375zm3.96875 -8.4375q-0.25 0 -0.578125 0.125q-0.3125 0.125 -0.890625 0.578125q-0.578125 0.453125 -1.09375 0.84375q-0.5 0.375 -1.203125 1.140625q-0.703125 0.765625 -1.15625 1.21875q-0.453125 0.4375 -1.21875 1.28125q-0.765625 0.828125 -1.03125 1.078125q8.84375 -1.53125 8.71875 -4.734375q-0.265625 -1.53125 -1.546875 -1.53125zm-2.0394745 54.015625q9.34375 0 9.34375 11.765625q0 5.390625 -2.8125 11.53125q-3.59375 8.3125 -10.75 15.09375q1.65625 3.203125 6.015625 3.203125q3.453125 0 6.515625 -3.453125q3.84375 -3.96875 5.5 -6.96875q1.671875 -3.015625 2.4375 -4.421875q0.765625 -1.40625 1.984375 -4.03125q1.21875 -2.625 1.46875 -3.203125q0.265625 -0.578125 0.90625 -0.578125q1.28125 -0.125 1.28125 0.90625q0 0.375 -0.265625 0.890625l-0.765625 1.796875q-0.765625 1.78125 -1.15625 2.5625q-0.375 0.765625 -1.34375 2.75q-0.953125 1.984375 -1.65625 3.140625q-0.703125 1.140625 -1.921875 3.0625q-1.21875 1.921875 -2.1875 3.078125q-0.953125 1.140625 -2.359375 2.546875q-1.40625 1.40625 -2.6875 2.1875q-3.203125 1.90625 -6.015625 1.90625q-5.25 0 -8.1875 -3.328125q-5.890625 4.359375 -10.875 4.359375q-9.34375 0 -9.34375 -11.78125q0 -5.375 2.8125 -11.515625q3.84375 -8.953125 10.8125 -15.21875q6.96875 -6.28125 13.25 -6.28125zm1.40625 3.96875q-3.453125 0 -8.1875 4.609375q-4.734375 4.609375 -8.453125 12.53125q-4.484375 9.21875 -4.484375 15.109375q0 5.890625 4.484375 5.890625q3.203125 0 7.171875 -3.453125q-2.046875 -2.953125 -2.046875 -6.28125q0.25 -5.5 4.46875 -5.5q1.671875 0 2.75 1.15625q1.09375 1.15625 1.09375 2.109375q0 0.953125 -0.25 1.984375q2.171875 -3.203125 4.984375 -9.09375q3.203125 -6.515625 3.203125 -12.78125q0 -6.28125 -4.734375 -6.28125zm50.42688 6.015625q0 -7.296875 -6.015625 -7.296875q-0.515625 0 -1.015625 0q-2.3125 0.25 -2.703125 -0.890625q-0.375 -1.15625 1.15625 -1.53125q1.546875 -0.390625 3.328125 -0.140625q6.65625 1.03125 9.09375 6.265625q1.65625 3.203125 1.65625 6.28125q0 11.0 -8.0625 21.625q-8.0625 10.75 -20.859375 10.75q-4.734375 0 -7.6875 -2.6875q-2.9375 -2.6875 -2.9375 -7.15625q0 -5.375 6.140625 -18.1875q-10.484375 19.84375 -13.5625 22.796875q-1.28125 1.140625 -1.28125 -0.78125q0 -0.375 0.25 -0.890625q4.484375 -5.890625 17.859375 -32.0q13.375 -26.109379 18.75 -34.17188q4.359375 -6.28125 8.453125 -6.28125q0 0 0.125 0l0.640625 0q0.125 0 2.234375 0.390625q2.125 0.375 3.140625 0.125q-4.21875 4.484375 -13.3125 17.921875q-22.53125 33.406254 -22.53125 49.92188q0 6.78125 4.359375 7.671875q0.390625 0.140625 0.890625 0.140625q3.96875 0 9.921875 -7.109375q5.953125 -7.109375 9.796875 -16.1875q2.171875 -4.734375 2.171875 -8.578125zm18.956879 10.109375q-0.140625 0.515625 -1.171875 3.53125q-1.015625 3.0 -1.71875 5.75q-0.703125 2.75 -0.703125 5.5q0 2.75 1.28125 5.125q1.28125 2.359375 4.09375 2.359375q4.609375 0 8.953125 -6.203125q4.359375 -6.203125 9.21875 -15.8125q1.03125 -1.78125 1.921875 -1.40625q0.640625 0.515625 0.25 1.34375q-0.375 0.828125 -1.59375 3.59375q-1.21875 2.75 -1.796875 3.84375q-0.5625 1.078125 -2.046875 3.828125q-1.46875 2.75 -2.5625 4.09375q-1.078125 1.34375 -2.9375 3.46875q-1.84375 2.109375 -3.515625 3.125q-4.484375 2.8125 -8.453125 2.8125q-3.96875 0 -6.140625 -1.71875q-2.171875 -1.734375 -2.625 -3.71875q-0.4375 -1.984375 -0.4375 -3.515625q0 -1.53125 0.125 -3.96875q0.375 -4.09375 1.59375 -7.9375q1.21875 -3.84375 1.34375 -4.34375q2.953125 -10.625 8.390625 -23.171875q5.4375 -12.546879 9.203125 -18.875004q3.78125 -6.34375 5.953125 -8.640625q4.359375 -4.609375 8.578125 -4.609375q2.953125 0 3.96875 4.21875q0.125 0.765625 0.125 1.921875q0 4.34375 -3.0625 11.0q-11.015625 24.453129 -26.234375 38.406254zm1.015625 -4.09375q6.53125 -6.65625 12.921875 -16.765625q6.40625 -10.125004 9.40625 -17.218754q3.015625 -7.109375 3.015625 -9.671875q0 -2.5625 -0.890625 -2.5625q-1.28125 0 -4.875 5.0625q-3.578125 5.0625 -9.65625 18.1875q-6.078125 13.109379 -9.921875 22.968754zm1.4016266 69.25q-5.625 0 -8.6875 -2.375q-3.078125 -2.359375 -3.078125 -5.6875q0 -3.328125 1.90625 -7.5625q3.328125 -6.53125 12.046875 -10.484375q6.515625 -3.078125 17.26561 -5.703125q10.765625 -2.625 13.828125 -3.515625q4.609375 -8.0625 11.015625 -28.8125q-7.421875 13.0625 -12.421875 18.3125q-4.984375 5.25 -10.109375 5.25q-6.90625 0 -8.0625 -5.765625q-0.515625 -0.890625 -0.265625 -2.6875q0.265625 -1.796875 0.328125 -2.5625q0.0625 -0.765625 0.828125 -2.484375q0.765625 -1.734375 1.03125 -2.5q1.40625 -2.953125 2.421875 -4.609375q-2.046875 0 -1.140625 -2.046875l2.296875 -4.484375q4.359375 -8.3125 7.171875 -14.078125q1.28125 -2.6875 4.984375 -2.6875l7.8125 0q-0.25 0.25 -1.28125 1.015625q-2.296875 1.546875 -3.453125 3.59375q-4.609375 7.9375 -11.515625 22.65625q-2.828125 6.015625 -2.828125 8.828125q0 2.8125 0.953125 3.96875q0.96875 1.15625 2.640625 1.15625q2.421875 0 6.78125 -5.125q9.09375 -10.625 20.09375 -33.40625q1.40625 -2.6875 5.0 -2.6875l6.90625 0q-3.328125 2.296875 -5.25 5.828125q-1.921875 3.515625 -4.171875 9.53125q-2.234375 6.015625 -5.625 16.0q-3.390625 9.984375 -5.171875 14.96875q12.03125 -3.578125 18.421875 -12.671875q2.8125 -3.96875 8.0625 -14.078125q0.90625 -1.78125 1.609375 -1.390625q0.703125 0.375 0.703125 1.015625q0 0.640625 -2.125 4.9375q-2.109375 4.28125 -4.28125 7.9375q-2.171875 3.640625 -5.625 7.484375q-3.453125 3.828125 -7.6875 6.0625q-4.21875 2.25 -11.265625 4.8125q-9.84375 17.90625 -19.828125 26.359375q-9.34375 7.6875 -20.23436 7.6875zm-7.421875 -12.671875q-1.40625 2.8125 -1.40625 5.171875q0 2.375 1.796875 3.65625q1.78125 1.28125 4.46875 1.28125q7.4375 0 15.874985 -7.625q8.453125 -7.609375 14.84375 -16.3125l2.828125 -4.734375q-21.124985 5.5 -26.624985 7.9375q-8.203125 3.578125 -11.78125 10.625z" fill-rule="nonzero"/></g></g><path d="M 3.869999885559082 16.09666633605957 L 3.740000009536743 18.056665420532227 C 3.740000009536743 18.236665725708008 3.7666666507720947 18.383333206176758 3.819999933242798 18.496665954589844 L 3.640000104904175 18.866666793823242 C 3.613333225250244 19.439998626708984 3.4000000953674316 20.01999855041504 3 20.606666564941406 C 2.5999999046325684 21.19333267211914 2.1666667461395264 21.656665802001953 1.7000000476837158 21.996665954589844 C 1.3666666746139526 21.996665954589844 1.2000000476837158 21.84666633605957 1.2000000476837158 21.54666519165039 C 1.2133333683013916 21.393333435058594 1.350000023841858 21.233333587646484 1.6100000143051147 21.066665649414062 C 1.8633333444595337 20.899999618530273 2.013333320617676 20.793333053588867 2.059999942779541 20.746665954589844 C 2.7666666507720947 20.03999900817871 3.119999885559082 18.816665649414062 3.119999885559082 17.0766658782959 C 3.119999885559082 16.25 3.0799999237060547 15.066665649414062 3 13.526666641235352 C 2.9200000762939453 11.986665725708008 2.866666555404663 10.629999160766602 2.8399999141693115 9.456665992736816 C 2.753333330154419 5.569999694824219 2.623333215713501 3.156665802001953 2.450000047683716 2.216665267944336 L 1.1699999570846558 2.436666488647461 C 1.0766667127609253 2.436666488647461 1 2.3999996185302734 0.9399999976158142 2.3266658782958984 C 0.8733333349227905 2.2533321380615234 0.8399999737739563 2.1700000762939453 0.8399999737739563 2.0766658782958984 C 0.8399999737739563 1.676666259765625 1.943333387374878 1.4766654968261719 4.150000095367432 1.4766654968261719 C 4.256666660308838 1.4766654968261719 4.3466668128967285 1.5133323669433594 4.420000076293945 1.5866661071777344 C 4.5 1.666666030883789 4.539999961853027 1.7566661834716797 4.539999961853027 1.8566665649414062 C 4.539999961853027 2.0966663360595703 4.166666507720947 2.216665267944336 3.4200000762939453 2.216665267944336 L 3.1600000858306885 2.216665267944336 L 3.140000104904175 2.676666259765625 C 3.140000104904175 3.0966663360595703 3.190000057220459 3.729999542236328 3.2899999618530273 4.576665878295898 C 3.383333444595337 5.416666030883789 3.430000066757202 6.2133331298828125 3.430000066757202 6.966666221618652 C 3.430000066757202 7.719999313354492 3.503333330154419 9.159998893737793 3.6500000953674316 11.286665916442871 C 3.7966666221618652 13.413331985473633 3.869999885559082 15.016666412353516 3.869999885559082 16.09666633605957 M 2.450000047683716 19.956666946411133 C 2.4633333683013916 19.956666946411133 2.4700000286102295 19.966665267944336 2.4700000286102295 19.986665725708008 L 2.450000047683716 19.956666946411133 ZM 12.034375190734863 10.396665573120117 L 12.084375381469727 13.25666618347168 C 12.084375381469727 16.856666564941406 11.504375457763672 19.04666519165039 10.344375610351562 19.8266658782959 C 10.064374923706055 20.02666664123535 9.747708320617676 20.126665115356445 9.39437484741211 20.126665115356445 C 7.5210418701171875 20.126665115356445 6.584374904632568 17.18000030517578 6.584374904632568 11.286665916442871 C 6.584374904632568 9.01333236694336 6.741041660308838 7.039999008178711 7.054375171661377 5.366665840148926 C 7.287708282470703 4.146665573120117 7.644374847412109 3.5366668701171875 8.124375343322754 3.5366668701171875 C 8.23104190826416 3.5366668701171875 8.334375381469727 3.5799999237060547 8.434374809265137 3.666666030883789 C 8.527708053588867 3.75333309173584 8.661041259765625 3.8266658782958984 8.834375381469727 3.8866662979125977 C 9.001041412353516 3.9466657638549805 9.23104190826416 4.00333309173584 9.524374961853027 4.056666374206543 C 9.817708969116211 4.109999656677246 10.024374961853027 4.149999618530273 10.14437484741211 4.176666259765625 C 10.464374542236328 4.229999542236328 10.774374961853027 4.536665916442871 11.07437515258789 5.09666633605957 C 11.747708320617676 6.236665725708008 12.084375381469727 7.9633331298828125 12.084375381469727 10.276665687561035 L 12.034375190734863 10.396665573120117 M 7.334374904632568 11.266666412353516 L 7.384375095367432 13.166666030883789 C 7.384375095367432 14.686666488647461 7.554374694824219 16.133333206176758 7.894374847412109 17.50666618347168 C 8.021041870117188 18.02666664123535 8.207708358764648 18.476665496826172 8.454375267028809 18.856666564941406 C 8.701042175292969 19.243331909179688 8.98104190826416 19.43666648864746 9.294374465942383 19.43666648864746 C 9.614375114440918 19.43666648864746 9.89437484741211 19.316665649414062 10.134374618530273 19.0766658782959 C 10.367708206176758 18.843332290649414 10.554374694824219 18.51999855041504 10.694375038146973 18.106666564941406 C 10.841041564941406 17.68666648864746 10.961041450500488 17.259998321533203 11.054374694824219 16.8266658782959 C 11.147708892822266 16.393333435058594 11.214374542236328 15.906665802001953 11.254375457763672 15.366665840148926 C 11.314374923706055 14.50666618347168 11.344375610351562 13.739999771118164 11.344375610351562 13.066665649414062 L 11.07437515258789 7.396665573120117 L 10.984375 7.206665992736816 L 11.024374961853027 7.09666633605957 C 11.024374961853027 6.396665573120117 10.83104133605957 5.789999008178711 10.444375038146973 5.276665687561035 C 10.051041603088379 4.763332366943359 9.57437515258789 4.50666618347168 9.014374732971191 4.50666618347168 L 8.004375457763672 4.50666618347168 C 7.871041774749756 4.50666618347168 7.754374980926514 5.216666221618652 7.654375076293945 6.636666297912598 C 7.554374694824219 8.063332557678223 7.48770809173584 8.85666561126709 7.454375267028809 9.016666412353516 L 7.334374904632568 11.266666412353516 ZM 14.791093826293945 4.09666633605957 C 14.791093826293945 3.676666259765625 14.95776081085205 3.466665267944336 15.291093826293945 3.466665267944336 C 15.511094093322754 3.466665267944336 15.924427032470703 3.563333511352539 16.53109359741211 3.7566661834716797 C 17.137760162353516 3.9433326721191406 17.444427490234375 4.109999656677246 17.451093673706055 4.25666618347168 C 17.431093215942383 4.289999008178711 17.421092987060547 4.313332557678223 17.421092987060547 4.326665878295898 C 17.721094131469727 4.793333053588867 17.921092987060547 5.263332366943359 18.021093368530273 5.736665725708008 C 18.12109375 6.209999084472656 18.171092987060547 6.923333168029785 18.171092987060547 7.876666069030762 C 18.171092987060547 8.823332786560059 18.04442596435547 9.646665573120117 17.791093826293945 10.34666633605957 L 17.811094284057617 10.34666633605957 C 17.751094818115234 10.499999046325684 17.62775993347168 10.709999084472656 17.44109344482422 10.976666450500488 C 17.261093139648438 11.243332862854004 17.151094436645508 11.41333293914795 17.111093521118164 11.486665725708008 C 17.424427032470703 11.726665496826172 17.671092987060547 12.073332786560059 17.851093292236328 12.526666641235352 C 18.03775978088379 12.973333358764648 18.151094436645508 13.373332977294922 18.19109344482422 13.726665496826172 C 18.237760543823242 14.079999923706055 18.271093368530273 14.5 18.291093826293945 14.986665725708008 L 18.321094512939453 15.616665840148926 L 18.321094512939453 15.956665992736816 C 18.321094512939453 17.483333587646484 17.84442710876465 18.613332748413086 16.891094207763672 19.34666633605957 C 16.37775993347168 19.739999771118164 15.764427185058594 19.93666648864746 15.051094055175781 19.93666648864746 C 14.904426574707031 19.93666648864746 14.791093826293945 19.88666534423828 14.71109390258789 19.786666870117188 C 14.631093978881836 19.69333267211914 14.587760925292969 19.56999969482422 14.581093788146973 19.41666603088379 C 14.574426651000977 19.26999855041504 14.571093559265137 19.02666664123535 14.571093559265137 18.68666648864746 L 14.811094284057617 13.616665840148926 L 14.761094093322754 11.486665725708008 L 14.911093711853027 5.746665954589844 C 14.911093711853027 5.133332252502441 14.901093482971191 4.666666030883789 14.881093978881836 4.34666633605957 L 14.791093826293945 4.236665725708008 L 14.791093826293945 4.09666633605957 M 15.391094207763672 17.906665802001953 L 15.411093711853027 18.996665954589844 C 16.004426956176758 18.996665954589844 16.511093139648438 18.716665267944336 16.931093215942383 18.156665802001953 C 17.35776138305664 17.60333251953125 17.571094512939453 17.016666412353516 17.571094512939453 16.396665573120117 L 17.571094512939453 16.366666793823242 C 17.577760696411133 16.219999313354492 17.581092834472656 16.083332061767578 17.581092834472656 15.956665992736816 C 17.581092834472656 15.823332786560059 17.574426651000977 15.593332290649414 17.561094284057617 15.266666412353516 C 17.547760009765625 14.9399995803833 17.521093368530273 14.643332481384277 17.481094360351562 14.376666069030762 C 17.44109344482422 14.10333251953125 17.374427795410156 13.803333282470703 17.28109359741211 13.476665496826172 C 17.181093215942383 13.149999618530273 17.06442642211914 12.873332977294922 16.931093215942383 12.646665573120117 C 16.604427337646484 12.106666564941406 16.151094436645508 11.836666107177734 15.571093559265137 11.836666107177734 C 15.497760772705078 13.029998779296875 15.46109390258789 14.086666107177734 15.46109390258789 15.00666618347168 C 15.46109390258789 15.926666259765625 15.484426498413086 16.509998321533203 15.53109359741211 16.75666618347168 C 15.437760353088379 16.93000030517578 15.391094207763672 17.31333351135254 15.391094207763672 17.906665802001953 M 15.53109359741211 8.716666221618652 L 15.501093864440918 10.396665573120117 L 15.501093864440918 10.686666488647461 L 15.601093292236328 11.00666618347168 L 15.771093368530273 11.00666618347168 C 16.824426651000977 11.00666618347168 17.351093292236328 9.9399995803833 17.351093292236328 7.806666374206543 C 17.351093292236328 7.5199995040893555 17.327760696411133 7.023332595825195 17.28109359741211 6.3166656494140625 L 17.241092681884766 6.276665687561035 C 17.13442611694336 4.943332672119141 16.731094360351562 4.276665687561035 16.03109359741211 4.276665687561035 C 15.677760124206543 4.276665687561035 15.501093864440918 5.329998970031738 15.501093864440918 7.436666488647461 L 15.53109359741211 8.716666221618652 ZM 27.610469818115234 11.556666374206543 L 27.590469360351562 11.646665573120117 C 27.590469360351562 11.659998893737793 27.773801803588867 12.279998779296875 28.14046859741211 13.50666618347168 C 28.380468368530273 14.459999084472656 28.500469207763672 15.19333267211914 28.500469207763672 15.706665992736816 C 28.500469207763672 16.219999313354492 28.440467834472656 16.72333335876465 28.32046890258789 17.216665267944336 C 28.200468063354492 17.709999084472656 28.023801803588867 18.183332443237305 27.790468215942383 18.63666534423828 C 27.55713653564453 19.09000015258789 27.240468978881836 19.463333129882812 26.840469360351562 19.75666618347168 C 26.440467834472656 20.049999237060547 26.053802490234375 20.196666717529297 25.680469512939453 20.196666717529297 C 25.3071346282959 20.196666717529297 25.04380226135254 20.18666648864746 24.89046859741211 20.16666603088379 C 24.430469512939453 20.119998931884766 24.107135772705078 19.93000030517578 23.920469284057617 19.59666633605957 C 23.920469284057617 19.403331756591797 24.003801345825195 19.306665420532227 24.170469284057617 19.306665420532227 C 24.337135314941406 19.306665420532227 24.56380271911621 19.366666793823242 24.8504695892334 19.486665725708008 C 25.137134552001953 19.606666564941406 25.407135009765625 19.66666603088379 25.66046905517578 19.66666603088379 C 25.920469284057617 19.66666603088379 26.19713592529297 19.516666412353516 26.490468978881836 19.216665267944336 C 26.783802032470703 18.92333221435547 27.00713539123535 18.556665420532227 27.16046905517578 18.116666793823242 C 27.47380256652832 17.229999542236328 27.630468368530273 16.396665573120117 27.630468368530273 15.616665840148926 C 27.630468368530273 14.843332290649414 27.51380157470703 14.053333282470703 27.280467987060547 13.246665954589844 C 27.047134399414062 12.4399995803833 26.760469436645508 11.703332901000977 26.420469284057617 11.036665916442871 C 26.080469131469727 10.376666069030762 25.74380111694336 9.713333129882812 25.41046905517578 9.046666145324707 C 24.603801727294922 7.473332405090332 24.200468063354492 5.983332633972168 24.200468063354492 4.576665878295898 C 24.200468063354492 3.4099998474121094 24.55046844482422 2.479999542236328 25.250469207763672 1.7866668701171875 C 25.637134552001953 1.4200000762939453 26.087135314941406 1.2366657257080078 26.600467681884766 1.2366657257080078 C 26.767135620117188 1.2366657257080078 26.977134704589844 1.2999992370605469 27.23046875 1.426666259765625 C 27.490468978881836 1.5533332824707031 27.64713478088379 1.686666488647461 27.700468063354492 1.8266658782958984 L 27.560468673706055 2.0966663360595703 C 27.200468063354492 2.0966663360595703 26.940467834472656 2.0166664123535156 26.780467987060547 1.8566665649414062 C 26.393802642822266 1.8566665649414062 26.06380271911621 2 25.790468215942383 2.2866668701171875 C 25.277135848999023 2.8199996948242188 25.020469665527344 3.5166664123535156 25.020469665527344 4.376666069030762 C 25.020469665527344 5.0099992752075195 25.07046890258789 5.533332824707031 25.170469284057617 5.9466657638549805 C 25.270469665527344 6.366665840148926 25.350467681884766 6.686666488647461 25.41046905517578 6.906665802001953 C 25.463802337646484 7.126666069030762 25.560468673706055 7.403332710266113 25.700468063354492 7.736665725708008 C 25.840469360351562 8.069999694824219 25.943801879882812 8.319999694824219 26.010469436645508 8.486665725708008 C 26.07713508605957 8.653332710266113 26.207136154174805 8.923333168029785 26.400468826293945 9.296666145324707 C 26.587135314941406 9.669999122619629 26.710468292236328 9.91333293914795 26.770469665527344 10.026665687561035 C 26.830469131469727 10.133332252502441 26.97380256652832 10.396665573120117 27.200468063354492 10.816665649414062 C 27.433801651000977 11.229999542236328 27.57046890258789 11.476666450500488 27.610469818115234 11.556666374206543 ZM 30.928438186645508 19.476665496826172 L 30.948436737060547 18.866666793823242 L 30.868436813354492 18.77666664123535 C 30.98177146911621 18.4566650390625 31.038436889648438 18.126667022705078 31.038436889648438 17.786666870117188 L 30.928438186645508 14.626666069030762 L 31.088438034057617 7.396665573120117 L 30.998437881469727 4.526665687561035 C 30.998437881469727 4.073332786560059 31.228437423706055 3.8466663360595703 31.688438415527344 3.8466663360595703 C 31.868436813354492 3.8466663360595703 31.998437881469727 3.896665573120117 32.07843780517578 3.9966659545898438 C 32.131771087646484 4.016666412353516 32.36177062988281 4.049999237060547 32.768436431884766 4.09666633605957 C 33.748435974121094 4.203332901000977 34.25177001953125 4.399999618530273 34.278438568115234 4.686666488647461 C 34.278438568115234 4.813332557678223 34.12510299682617 4.966666221618652 33.81843566894531 5.146665573120117 C 32.938438415527344 4.859999656677246 32.291770935058594 4.706665992736816 31.878437042236328 4.686666488647461 L 31.758438110351562 4.826665878295898 C 31.771770477294922 5.053332328796387 31.778438568115234 5.399999618530273 31.778438568115234 5.866665840148926 L 31.688438415527344 9.586666107177734 C 31.688438415527344 10.033332824707031 31.80177116394043 10.25666618347168 32.028438568115234 10.25666618347168 L 32.838436126708984 10.206665992736816 C 33.44510269165039 10.206665992736816 33.75843811035156 10.35333251953125 33.778438568115234 10.646665573120117 C 33.778438568115234 10.806666374206543 33.735103607177734 10.949999809265137 33.6484375 11.076665878295898 C 33.56843566894531 11.203332901000977 33.42177200317383 11.266666412353516 33.208438873291016 11.266666412353516 C 33.00177001953125 11.266666412353516 32.8451042175293 11.203332901000977 32.73843765258789 11.076665878295898 L 31.958436965942383 10.956665992736816 L 31.848438262939453 10.956665992736816 L 31.73843765258789 11.076665878295898 L 31.73843765258789 11.146665573120117 C 31.765104293823242 11.559999465942383 31.778438568115234 12.19333267211914 31.778438568115234 13.046666145324707 L 31.73843765258789 16.4566650390625 C 31.73843765258789 18.049999237060547 31.845104217529297 18.933332443237305 32.05843734741211 19.106666564941406 C 32.20510482788086 19.219999313354492 32.46510314941406 19.27666664123535 32.838436126708984 19.27666664123535 L 33.72843933105469 19.236665725708008 C 34.19510269165039 19.236665725708008 34.428436279296875 19.34000015258789 34.428436279296875 19.54666519165039 C 34.428436279296875 19.84000015258789 34.08177185058594 19.986665725708008 33.3884391784668 19.986665725708008 L 31.408437728881836 19.986665725708008 C 31.108436584472656 19.986665725708008 30.948436737060547 19.816665649414062 30.928438186645508 19.476665496826172 ZM 36.60234451293945 4.576665878295898 C 36.60234451293945 3.9633331298828125 36.77567672729492 3.656665802001953 37.122344970703125 3.656665802001953 C 37.90234375 3.656665802001953 38.54901123046875 3.85333251953125 39.06234359741211 4.246665954589844 C 39.56901168823242 4.646665573120117 39.82234191894531 5.226666450500488 39.82234191894531 5.986665725708008 L 39.82234191894531 7.736665725708008 C 39.82234191894531 8.35666561126709 39.509010314941406 9.239999771118164 38.88234329223633 10.386666297912598 C 38.669010162353516 10.766666412353516 38.56234359741211 10.976666450500488 38.56234359741211 11.016666412353516 C 38.56234359741211 11.049999237060547 38.86567687988281 12.313332557678223 39.47234344482422 14.806665420532227 C 40.079010009765625 17.306665420532227 40.399009704589844 18.593332290649414 40.432342529296875 18.66666603088379 C 40.45901107788086 18.746665954589844 40.535675048828125 18.913331985473633 40.66234588623047 19.16666603088379 C 40.78900909423828 19.413331985473633 40.85234451293945 19.626665115356445 40.85234451293945 19.806665420532227 C 40.85234451293945 19.986665725708008 40.76234436035156 20.0766658782959 40.58234405517578 20.0766658782959 L 40.23234558105469 19.956666946411133 C 39.8590087890625 19.536666870117188 39.44900894165039 17.976665496826172 39.002342224121094 15.276666641235352 C 38.56901168823242 12.663331985473633 38.20234298706055 11.35666561126709 37.90234375 11.35666561126709 L 37.802345275878906 11.35666561126709 C 37.4556770324707 11.35666561126709 37.282344818115234 11.469999313354492 37.282344818115234 11.696666717529297 C 37.282344818115234 12.569999694824219 37.33234405517578 14.026666641235352 37.432342529296875 16.066665649414062 C 37.532344818115234 18.099998474121094 37.61901092529297 19.236665725708008 37.692344665527344 19.476665496826172 L 37.51234436035156 19.876665115356445 L 37.1623420715332 19.876665115356445 L 36.98234558105469 19.68666648864746 C 36.72901153564453 12.75999927520752 36.60234451293945 7.723332405090332 36.60234451293945 4.576665878295898 M 37.282344818115234 4.896665573120117 L 37.372344970703125 10.716666221618652 L 37.42234420776367 10.75666618347168 C 37.72234344482422 10.75666618347168 37.99567794799805 10.59999942779541 38.24234390258789 10.286665916442871 C 38.48234558105469 9.966666221618652 38.66567611694336 9.579998970031738 38.79234313964844 9.126666069030762 C 39.045677185058594 8.19333267211914 39.17234420776367 7.483332633972168 39.17234420776367 6.996665954589844 C 39.17234420776367 6.516666412353516 39.15901184082031 6.153332710266113 39.13234329223633 5.906665802001953 C 39.0990104675293 5.659998893737793 39.032344818115234 5.399999618530273 38.932342529296875 5.126666069030762 C 38.71900939941406 4.559999465942383 38.26234436035156 4.276665687561035 37.56234359741211 4.276665687561035 C 37.46900939941406 4.276665687561035 37.399009704589844 4.35333251953125 37.35234451293945 4.50666618347168 C 37.3056755065918 4.653332710266113 37.282344818115234 4.783332824707031 37.282344818115234 4.896665573120117 ZM 48.89765548706055 3.3166656494140625 C 49.07765579223633 3.3699989318847656 49.16765594482422 3.4733333587646484 49.16765594482422 3.6266651153564453 C 49.16765594482422 3.7733325958251953 49.1509895324707 3.9633331298828125 49.11765670776367 4.1966657638549805 C 49.07765579223633 4.429999351501465 49.02098846435547 4.6966657638549805 48.947654724121094 4.996665954589844 C 48.88098907470703 5.303332328796387 48.82765579223633 5.539999008178711 48.787654876708984 5.706665992736816 C 48.75432205200195 5.873332977294922 48.61765670776367 6.483332633972168 48.377655029296875 7.536665916442871 C 48.14432144165039 8.583333015441895 47.98432159423828 9.389999389648438 47.89765548706055 9.956665992736816 C 47.81098937988281 10.516666412353516 47.717655181884766 11.316665649414062 47.61765670776367 12.356666564941406 C 47.510990142822266 13.403332710266113 47.434322357177734 14.09666633605957 47.387657165527344 14.436666488647461 C 47.34098815917969 14.783332824707031 47.240989685058594 15.25 47.08765411376953 15.836666107177734 C 46.94099044799805 16.43000030517578 46.850990295410156 16.81333351135254 46.817657470703125 16.986665725708008 C 46.784324645996094 17.153331756591797 46.760990142822266 17.373332977294922 46.747657775878906 17.646665573120117 C 46.73432159423828 17.913331985473633 46.71099090576172 18.16666603088379 46.67765808105469 18.406665802001953 C 46.64432144165039 18.646665573120117 46.59765625 18.889999389648438 46.537654876708984 19.13666534423828 C 46.410987854003906 19.683332443237305 46.160987854003906 19.956666946411133 45.787654876708984 19.956666946411133 L 45.51765441894531 19.736665725708008 C 45.51765441894531 17.1299991607666 44.807655334472656 12.69333267211914 43.387657165527344 6.426666259765625 C 43.36098861694336 6.313332557678223 43.2943229675293 6.063332557678223 43.18765640258789 5.676666259765625 C 42.887657165527344 4.609999656677246 42.73765563964844 4.043333053588867 42.73765563964844 3.9766664505004883 C 42.73765563964844 3.9033327102661133 42.774322509765625 3.8333330154418945 42.84765625 3.7666664123535156 C 42.91432189941406 3.6933326721191406 42.990989685058594 3.656665802001953 43.07765579223633 3.656665802001953 C 43.16432189941406 3.656665802001953 43.25432205200195 3.7266664505004883 43.34765625 3.866665840148926 C 43.44099044799805 3.9999990463256836 43.51765441894531 4.179999351501465 43.57765579223633 4.406665802001953 C 43.64432144165039 4.626666069030762 43.70098876953125 4.843332290649414 43.747657775878906 5.056666374206543 C 43.7943229675293 5.263332366943359 43.8376579284668 5.476666450500488 43.877655029296875 5.6966657638549805 C 43.91765594482422 5.909998893737793 43.96432113647461 6.129999160766602 44.01765441894531 6.35666561126709 C 44.07765579223633 6.5833330154418945 44.15432357788086 6.903332710266113 44.247657775878906 7.3166656494140625 C 44.34098815917969 7.736665725708008 44.42432403564453 8.119998931884766 44.497657775878906 8.466666221618652 C 44.57765579223633 8.806666374206543 44.660987854003906 9.216666221618652 44.747657775878906 9.69666576385498 C 44.84098815917969 10.176666259765625 44.91432189941406 10.556666374206543 44.967655181884766 10.836666107177734 C 45.02098846435547 11.116665840148926 45.09098815917969 11.523332595825195 45.17765808105469 12.056665420532227 C 45.26432418823242 12.59666633605957 45.32765579223633 12.976665496826172 45.36765670776367 13.196666717529297 C 45.4009895324707 13.40999984741211 45.46432113647461 13.816665649414062 45.557655334472656 14.416666030883789 C 45.64432144165039 15.016666412353516 45.697654724121094 15.393332481384277 45.717655181884766 15.546666145324707 C 45.73765563964844 15.69999885559082 45.79765701293945 16.10999870300293 45.89765548706055 16.77666664123535 C 45.997657775878906 17.44333267211914 46.0543212890625 17.833332061767578 46.067657470703125 17.946666717529297 C 46.39432144165039 16.85999870300293 46.66765594482422 15.323332786560059 46.887657165527344 13.336666107177734 C 47.10765838623047 11.35666561126709 47.42765808105469 9.316665649414062 47.84765625 7.216666221618652 C 48.26765441894531 5.116665840148926 48.51432418823242 3.859999656677246 48.58765411376953 3.446666717529297 L 48.89765548706055 3.3166656494140625 M 46.04765701293945 18.016666412353516 L 46.01765441894531 18.056665420532227 L 46.04765701293945 18.106666564941406 L 46.04765701293945 18.016666412353516 M 45.377655029296875 6.706665992736816 L 45.377655029296875 6.75666618347168 L 45.34765625 6.75666618347168 C 45.34765625 6.723332405090332 45.3576545715332 6.706665992736816 45.377655029296875 6.706665992736816 ZM 51.494842529296875 19.476665496826172 L 51.51484298706055 18.866666793823242 L 51.434844970703125 18.77666664123535 C 51.54817581176758 18.4566650390625 51.60484313964844 18.126667022705078 51.60484313964844 17.786666870117188 L 51.494842529296875 14.626666069030762 L 51.654842376708984 7.396665573120117 L 51.564842224121094 4.526665687561035 C 51.564842224121094 4.073332786560059 51.79484558105469 3.8466663360595703 52.254844665527344 3.8466663360595703 C 52.434844970703125 3.8466663360595703 52.564842224121094 3.896665573120117 52.64484405517578 3.9966659545898438 C 52.698177337646484 4.016666412353516 52.92817687988281 4.049999237060547 53.334842681884766 4.09666633605957 C 54.314842224121094 4.203332901000977 54.81817626953125 4.399999618530273 54.844844818115234 4.686666488647461 C 54.844844818115234 4.813332557678223 54.69150924682617 4.966666221618652 54.38484191894531 5.146665573120117 C 53.504844665527344 4.859999656677246 52.858177185058594 4.706665992736816 52.44484329223633 4.686666488647461 L 52.32484436035156 4.826665878295898 C 52.33817672729492 5.053332328796387 52.344844818115234 5.399999618530273 52.344844818115234 5.866665840148926 L 52.254844665527344 9.586666107177734 C 52.254844665527344 10.033332824707031 52.3681755065918 10.25666618347168 52.594844818115234 10.25666618347168 L 53.404842376708984 10.206665992736816 C 54.01150894165039 10.206665992736816 54.32484436035156 10.35333251953125 54.344844818115234 10.646665573120117 C 54.344844818115234 10.806666374206543 54.301509857177734 10.949999809265137 54.21484375 11.076665878295898 C 54.13484191894531 11.203332901000977 53.98817825317383 11.266666412353516 53.774845123291016 11.266666412353516 C 53.56817626953125 11.266666412353516 53.4115104675293 11.203332901000977 53.30484390258789 11.076665878295898 L 52.524845123291016 10.956665992736816 L 52.41484451293945 10.956665992736816 L 52.30484390258789 11.076665878295898 L 52.30484390258789 11.146665573120117 C 52.33150863647461 11.559999465942383 52.344844818115234 12.19333267211914 52.344844818115234 13.046666145324707 L 52.30484390258789 16.4566650390625 C 52.30484390258789 18.049999237060547 52.4115104675293 18.933332443237305 52.62484359741211 19.106666564941406 C 52.77151107788086 19.219999313354492 53.03150939941406 19.27666664123535 53.404842376708984 19.27666664123535 L 54.29484558105469 19.236665725708008 C 54.76150894165039 19.236665725708008 54.994842529296875 19.34000015258789 54.994842529296875 19.54666519165039 C 54.994842529296875 19.84000015258789 54.64817810058594 19.986665725708008 53.9548454284668 19.986665725708008 L 51.9748420715332 19.986665725708008 C 51.674842834472656 19.986665725708008 51.51484298706055 19.816665649414062 51.494842529296875 19.476665496826172 ZM 57.16875076293945 4.576665878295898 C 57.16875076293945 3.9633331298828125 57.34208297729492 3.656665802001953 57.688751220703125 3.656665802001953 C 58.46875 3.656665802001953 59.11541748046875 3.85333251953125 59.62874984741211 4.246665954589844 C 60.13541793823242 4.646665573120117 60.38874816894531 5.226666450500488 60.38874816894531 5.986665725708008 L 60.38874816894531 7.736665725708008 C 60.38874816894531 8.35666561126709 60.075416564941406 9.239999771118164 59.44874954223633 10.386666297912598 C 59.235416412353516 10.766666412353516 59.12874984741211 10.976666450500488 59.12874984741211 11.016666412353516 C 59.12874984741211 11.049999237060547 59.43208312988281 12.313332557678223 60.03874969482422 14.806665420532227 C 60.645416259765625 17.306665420532227 60.965415954589844 18.593332290649414 60.998748779296875 18.66666603088379 C 61.02541732788086 18.746665954589844 61.102081298828125 18.913331985473633 61.22875213623047 19.16666603088379 C 61.35541534423828 19.413331985473633 61.41875076293945 19.626665115356445 61.41875076293945 19.806665420532227 C 61.41875076293945 19.986665725708008 61.32875061035156 20.0766658782959 61.14875030517578 20.0766658782959 L 60.79875183105469 19.956666946411133 C 60.4254150390625 19.536666870117188 60.01541519165039 17.976665496826172 59.568748474121094 15.276666641235352 C 59.13541793823242 12.663331985473633 58.76874923706055 11.35666561126709 58.46875 11.35666561126709 L 58.368751525878906 11.35666561126709 C 58.0220832824707 11.35666561126709 57.848751068115234 11.469999313354492 57.848751068115234 11.696666717529297 C 57.848751068115234 12.569999694824219 57.89875030517578 14.026666641235352 57.998748779296875 16.066665649414062 C 58.098751068115234 18.099998474121094 58.18541717529297 19.236665725708008 58.258750915527344 19.476665496826172 L 58.07875061035156 19.876665115356445 L 57.7287483215332 19.876665115356445 L 57.54875183105469 19.68666648864746 C 57.29541778564453 12.75999927520752 57.16875076293945 7.723332405090332 57.16875076293945 4.576665878295898 M 57.848751068115234 4.896665573120117 L 57.938751220703125 10.716666221618652 L 57.98875045776367 10.75666618347168 C 58.28874969482422 10.75666618347168 58.56208419799805 10.59999942779541 58.80875015258789 10.286665916442871 C 59.04875183105469 9.966666221618652 59.23208236694336 9.579998970031738 59.35874938964844 9.126666069030762 C 59.612083435058594 8.19333267211914 59.73875045776367 7.483332633972168 59.73875045776367 6.996665954589844 C 59.73875045776367 6.516666412353516 59.72541809082031 6.153332710266113 59.69874954223633 5.906665802001953 C 59.6654167175293 5.659998893737793 59.598751068115234 5.399999618530273 59.498748779296875 5.126666069030762 C 59.28541564941406 4.559999465942383 58.82875061035156 4.276665687561035 58.12874984741211 4.276665687561035 C 58.03541564941406 4.276665687561035 57.965415954589844 4.35333251953125 57.91875076293945 4.50666618347168 C 57.8720817565918 4.653332710266113 57.848751068115234 4.783332824707031 57.848751068115234 4.896665573120117 Z" transform="matrix(6.727607727050781, 0, 0, 6.727607727050781, 544.1886596679688, 520.1824340820312)" style="fill: rgb(51, 51, 51); white-space: pre; color: rgb(51, 51, 51);"/></svg>