<svg version="1.1"
  viewBox="0.0 0.0 535.0 300.0"
  fill="none" stroke="none" stroke-linecap="square" stroke-miterlimit="10"
  xmlns:xlink="http://www.w3.org/1999/xlink" xmlns="http://www.w3.org/2000/svg">

  <mask id="dollar">
    <rect fill="#ffffff" x="0" y="0" width="535" height="300"/>
    <path fill="#000000" d="m67.461006 36.395115l15.53125 0l0 14.546875l-29.40625 0q-1.53125 0 -2.59375 1.03125q-1.0625 1.03125 -1.0625 2.484375q0 1.53125 1.0625 2.59375q1.0625 1.0625 2.59375 1.0625l15.140625 0q3.71875 0 7.0 1.265625q3.28125 1.25 5.734375 3.515625q2.46875 2.2499962 3.890625 5.374996q1.4375 3.125 1.4375 6.84375q0 3.78125 -1.4375 7.109375q-1.421875 3.3125 -3.890625 5.734375q-2.453125 2.421875 -5.734375 3.859375q-3.28125 1.421875 -7.0 1.421875l-1.265625 0l0 20.390625l-12.21875 0l0 -20.390625l-19.71875 0l0 -14.40625l33.203125 0q1.390625 0 2.453125 -1.09375q1.0625 -1.09375 1.0625 -2.625q0 -1.53125 -1.0625 -1.953125q-1.0625 -0.4375 -2.453125 -0.4375l-15.140625 0q-3.796875 0 -7.078125 -1.421875q-3.28125 -1.4375 -5.71875 -3.921875q-2.421875 -2.5 -3.84375 -5.812496q-1.421875 -3.328125 -1.421875 -7.109375q0 -3.71875 1.421875 -7.0q1.421875 -3.296875 3.84375 -5.75q2.4375 -2.453125 5.71875 -3.875q3.28125 -1.4375 7.078125 -1.4375l1.65625 0l0 -18.000002l12.21875 0l0 18.000002z" fill-rule="nonzero"/>
  </mask>
  <g transform="translate(0 75)">
    <g mask="url(#dollar)">
      <path fill="#434343" d="m17.146982 21.664042l72.909744 0l26.617813 44.92914l-26.617813 44.92913l-72.909744 0z" fill-rule="evenodd"/>
      <path fill="#434343" d="m200.03937 83.80028q0 5.5625 -2.125 10.4375q-2.125 4.875 -5.78125 8.53125q-3.65625 3.65625 -8.53125 5.78125q-4.875 2.125 -10.4375 2.125l-44.8125 0l0 -89.625l44.8125 0q5.5625 0 10.4375 2.125q4.875 2.125 8.53125 5.78125q3.65625 3.656252 5.78125 8.531252q2.125 4.875 2.125 10.4375q0 2.5 -0.6875 5.125q-0.6875 2.625 -1.9375 5.0625q-1.25 2.4375 -3.0 4.4375q-1.75 1.9999962 -3.875 3.3124962q2.1875 1.1875 3.9375 3.21875q1.75 2.03125 3.0 4.46875q1.25 2.4375 1.90625 5.09375q0.65625 2.65625 0.65625 5.15625zm-53.75 8.9375l26.875 0q1.875 0 3.5 -0.6875q1.625 -0.6875 2.84375 -1.90625q1.21875 -1.21875 1.90625 -2.84375q0.6875 -1.625 0.6875 -3.5q0 -1.875 -0.6875 -3.5q-0.6875 -1.625 -1.90625 -2.84375q-1.21875 -1.21875 -2.84375 -1.90625q-1.625 -0.6875 -3.5 -0.6875l-26.875 0l0 17.875zm0 -35.812496l26.875 0q1.875 0 3.5 -0.6875q1.625 -0.6875 2.84375 -1.90625q1.21875 -1.21875 1.90625 -2.875q0.6875 -1.65625 0.6875 -3.53125q0 -1.875 -0.6875 -3.5q-0.6875 -1.625 -1.90625 -2.84375q-1.21875 -1.21875 -2.84375 -1.90625q-1.625 -0.6875 -3.5 -0.6875l-26.875 0l0 17.9375zm130.3125 53.749996l-4.125 0l-6.625 -9.1875q-2.4375 2.1875 -5.15625 4.09375q-2.71875 1.90625 -5.71875 3.3125q-3.0 1.40625 -6.15625 2.21875q-3.15625 0.8125 -6.40625 0.8125q-7.0625 0 -13.28125 -2.375q-6.21875 -2.375 -10.875 -6.90625q-4.65625 -4.53125 -7.34375 -11.09375q-2.6875 -6.5625 -2.6875 -14.9375q0 -7.8125 2.6875 -14.343746q2.6875 -6.53125 7.34375 -11.21875q4.65625 -4.6875 10.875 -7.28125q6.21875 -2.59375 13.28125 -2.59375q3.25 0 6.4375 0.8125q3.1875 0.8125 6.1875 2.25q3.0 1.4375 5.71875 3.375q2.71875 1.9375 5.09375 4.1875l6.625 -7.9375l4.125 0l0 66.8125zm-17.1875 -34.0625q0 -3.5 -1.34375 -6.78125q-1.34375 -3.28125 -3.65625 -5.8125q-2.3125 -2.5312462 -5.40625 -4.062496q-3.09375 -1.53125 -6.59375 -1.53125q-3.5 0 -6.59375 1.1875q-3.09375 1.1875 -5.375 3.5q-2.28125 2.3124962 -3.59375 5.718746q-1.3125 3.40625 -1.3125 7.78125q0 4.375 1.3125 7.78125q1.3125 3.40625 3.59375 5.71875q2.28125 2.3125 5.375 3.5q3.09375 1.1875 6.59375 1.1875q3.5 0 6.59375 -1.53125q3.09375 -1.53125 5.40625 -4.0625q2.3125 -2.53125 3.65625 -5.8125q1.34375 -3.28125 1.34375 -6.78125zm66.9375 34.0625l-39.0 0l0 -17.0l39.0 0q1.75 0 3.0 -1.25q1.25 -1.25 1.25 -3.0q0 -1.8125 -1.25 -2.375q-1.25 -0.5625 -3.0 -0.5625l-17.75 0q-4.4375 0 -8.3125 -1.6875q-3.875 -1.6875 -6.75 -4.59375q-2.875 -2.90625 -4.53125 -6.78125q-1.65625 -3.875 -1.65625 -8.3125q0 -4.437496 1.65625 -8.312496q1.65625 -3.875 4.53125 -6.75q2.875 -2.875 6.75 -4.53125q3.875 -1.65625 8.3125 -1.65625l34.5625 0l0 17.0l-34.5625 0q-1.75 0 -3.0 1.25q-1.25 1.25 -1.25 2.9999962q0 1.8125 1.25 3.09375q1.25 1.28125 3.0 1.28125l17.75 0q4.375 0 8.25 1.46875q3.875 1.46875 6.75 4.09375q2.875 2.625 4.5625 6.3125q1.6875 3.6875 1.6875 8.0625q0 4.4375 -1.6875 8.28125q-1.6875 3.84375 -4.5625 6.75q-2.875 2.90625 -6.75 4.5625q-3.875 1.65625 -8.25 1.65625zm47.375 0l-17.0625 0l0 -93.5625l17.0625 0l0 29.562502q3.0625 -2.3125 6.3125 -3.28125q3.25 -0.96875 6.625 -0.96875q6.1875 0 11.625 2.34375q5.4375 2.34375 9.46875 6.4375q4.03125 4.09375 6.375 9.5625q2.34375 5.468746 2.34375 11.656246l0 38.25l-17.1875 0l0 -38.25l0.125 0q0 -2.625 -1.0 -4.96875q-1.0 -2.34375 -2.75 -4.093746q-1.75 -1.75 -4.0625 -2.75q-2.3125 -1.0 -4.9375 -1.0q-2.6875 0 -5.0625 1.0q-2.375 1.0 -4.125 2.75q-1.75 1.7499962 -2.75 4.093746q-1.0 2.34375 -1.0 4.96875l0 38.25zm72.0625 0l-17.1875 0l0 -93.5625l17.1875 0l0 93.5625zm29.125 25.5l0 -17.1875l9.5 0.125q2.5 0 4.8125 -0.8125q2.3125 -0.8125 4.28125 -2.25q1.96875 -1.4375 3.46875 -3.40625q1.5 -1.96875 2.4375 -4.28125q-2.8125 1.1875 -5.71875 2.375q-2.90625 1.1875 -5.84375 1.1875q-6.1875 0 -11.625 -2.1875q-5.4375 -2.1875 -9.53125 -6.21875q-4.09375 -4.03125 -6.4375 -9.8125q-2.34375 -5.78125 -2.34375 -12.96875l0 -36.999996l17.0 0l0 36.999996q0 3.5625 1.03125 6.21875q1.03125 2.65625 2.78125 4.4375q1.75 1.78125 4.09375 2.65625q2.34375 0.875 5.03125 0.875q2.625 0 4.96875 -1.21875q2.34375 -1.21875 4.09375 -3.21875q1.75 -2.0 2.75 -4.53125q1.0 -2.53125 1.0 -5.21875l0 -36.999996l17.1875 0l0 58.499996q-0.0625 7.0625 -2.75 13.25q-2.6875 6.1875 -7.34375 10.8125q-4.65625 4.625 -10.84375 7.3125q-6.1875 2.6875 -13.25 2.6875l-8.75 -0.125z" fill-rule="nonzero"/>
      <path fill="#767676" d="m143.24574 130.21742q0 0.984375 -0.375 1.84375q-0.375 0.859375 -1.03125 1.515625q-0.640625 0.640625 -1.5 1.015625q-0.859375 0.375 -1.84375 0.375l-7.9375 0l0 -15.859375l7.9375 0q0.984375 0 1.84375 0.375q0.859375 0.375 1.5 1.03125q0.65625 0.640625 1.03125 1.5q0.375 0.859375 0.375 1.84375q0 0.4375 -0.125 0.90625q-0.109375 0.46875 -0.34375 0.90625q-0.21875 0.421875 -0.53125 0.78125q-0.296875 0.34375 -0.671875 0.578125q0.375 0.21875 0.6875 0.578125q0.3125 0.359375 0.53125 0.796875q0.21875 0.421875 0.328125 0.890625q0.125 0.46875 0.125 0.921875zm-9.515625 1.578125l4.765625 0q0.328125 0 0.609375 -0.125q0.296875 -0.125 0.5 -0.328125q0.21875 -0.21875 0.34375 -0.5q0.125 -0.296875 0.125 -0.625q0 -0.34375 -0.125 -0.625q-0.125 -0.296875 -0.34375 -0.5q-0.203125 -0.21875 -0.5 -0.34375q-0.28125 -0.125 -0.609375 -0.125l-4.765625 0l0 3.171875zm0 -6.34375l4.765625 0q0.328125 0 0.609375 -0.109375q0.296875 -0.125 0.5 -0.34375q0.21875 -0.21875 0.34375 -0.515625q0.125 -0.296875 0.125 -0.625q0 -0.328125 -0.125 -0.609375q-0.125 -0.296875 -0.34375 -0.515625q-0.203125 -0.21875 -0.5 -0.328125q-0.28125 -0.125 -0.609375 -0.125l-4.765625 0l0 3.171875zm23.073792 9.515625l-0.734375 0l-1.171875 -1.625q-0.4375 0.390625 -0.921875 0.734375q-0.46875 0.328125 -1.0 0.578125q-0.53125 0.25 -1.09375 0.390625q-0.5625 0.140625 -1.125 0.140625q-1.25 0 -2.359375 -0.421875q-1.09375 -0.421875 -1.921875 -1.21875q-0.828125 -0.796875 -1.3125 -1.953125q-0.46875 -1.171875 -0.46875 -2.65625q0 -1.375 0.46875 -2.53125q0.484375 -1.15625 1.3125 -1.984375q0.828125 -0.84375 1.921875 -1.296875q1.109375 -0.453125 2.359375 -0.453125q0.5625 0 1.125 0.140625q0.578125 0.140625 1.109375 0.40625q0.53125 0.25 1.0 0.59375q0.484375 0.34375 0.90625 0.734375l1.171875 -1.40625l0.734375 0l0 11.828125zm-3.046875 -6.03125q0 -0.625 -0.234375 -1.203125q-0.234375 -0.578125 -0.65625 -1.015625q-0.40625 -0.453125 -0.953125 -0.71875q-0.546875 -0.28125 -1.15625 -0.28125q-0.625 0 -1.171875 0.21875q-0.546875 0.203125 -0.953125 0.609375q-0.40625 0.40625 -0.640625 1.015625q-0.234375 0.609375 -0.234375 1.375q0 0.78125 0.234375 1.390625q0.234375 0.59375 0.640625 1.0q0.40625 0.40625 0.953125 0.625q0.546875 0.203125 1.171875 0.203125q0.609375 0 1.15625 -0.265625q0.546875 -0.28125 0.953125 -0.71875q0.421875 -0.453125 0.65625 -1.03125q0.234375 -0.578125 0.234375 -1.203125zm11.8510895 6.03125l-6.90625 0l0 -3.015625l6.90625 0q0.3125 0 0.53125 -0.21875q0.21875 -0.21875 0.21875 -0.53125q0 -0.3125 -0.21875 -0.40625q-0.21875 -0.109375 -0.53125 -0.109375l-3.140625 0q-0.78125 0 -1.46875 -0.296875q-0.6875 -0.296875 -1.203125 -0.8125q-0.5 -0.515625 -0.796875 -1.203125q-0.296875 -0.6875 -0.296875 -1.46875q0 -0.78125 0.296875 -1.46875q0.296875 -0.6875 0.796875 -1.1875q0.515625 -0.515625 1.203125 -0.8125q0.6875 -0.296875 1.46875 -0.296875l6.109375 0l0 3.015625l-6.109375 0q-0.3125 0 -0.53125 0.21875q-0.21875 0.21875 -0.21875 0.53125q0 0.3125 0.21875 0.546875q0.21875 0.21875 0.53125 0.21875l3.140625 0q0.78125 0 1.453125 0.265625q0.6875 0.265625 1.1875 0.734375q0.515625 0.453125 0.8125 1.109375q0.3125 0.65625 0.3125 1.421875q0 0.796875 -0.3125 1.484375q-0.296875 0.671875 -0.8125 1.1875q-0.5 0.5 -1.1875 0.796875q-0.671875 0.296875 -1.453125 0.296875zm8.3858185 0l-3.015625 0l0 -16.5625l3.015625 0l0 5.234375q0.546875 -0.40625 1.109375 -0.578125q0.578125 -0.171875 1.171875 -0.171875q1.109375 0 2.0625 0.421875q0.96875 0.40625 1.671875 1.140625q0.71875 0.71875 1.125 1.6875q0.421875 0.96875 0.421875 2.0625l0 6.765625l-3.046875 0l0 -6.765625l0.03125 0q0 -0.46875 -0.1875 -0.875q-0.171875 -0.421875 -0.484375 -0.734375q-0.296875 -0.3125 -0.71875 -0.484375q-0.40625 -0.171875 -0.875 -0.171875q-0.46875 0 -0.890625 0.171875q-0.421875 0.171875 -0.734375 0.484375q-0.296875 0.3125 -0.484375 0.734375q-0.171875 0.40625 -0.171875 0.875l0 6.765625zm29.04071 -1.625q-1.109375 0.953125 -2.484375 1.46875q-1.375 0.5 -2.84375 0.5q-1.125 0 -2.171875 -0.296875q-1.046875 -0.296875 -1.96875 -0.828125q-0.90625 -0.53125 -1.65625 -1.28125q-0.75 -0.765625 -1.296875 -1.671875q-0.53125 -0.90625 -0.828125 -1.953125q-0.28125 -1.046875 -0.28125 -2.171875q0 -1.140625 0.28125 -2.1875q0.296875 -1.046875 0.828125 -1.953125q0.546875 -0.921875 1.296875 -1.671875q0.75 -0.75 1.65625 -1.28125q0.921875 -0.546875 1.96875 -0.828125q1.046875 -0.296875 2.171875 -0.296875q1.46875 0 2.84375 0.5q1.375 0.5 2.484375 1.46875l-1.6875 2.765625q-0.6875 -0.765625 -1.640625 -1.15625q-0.953125 -0.40625 -2.0 -0.40625q-1.046875 0 -1.96875 0.40625q-0.921875 0.390625 -1.609375 1.078125q-0.671875 0.671875 -1.078125 1.59375q-0.390625 0.921875 -0.390625 1.96875q0 1.03125 0.390625 1.953125q0.40625 0.90625 1.078125 1.59375q0.6875 0.6875 1.609375 1.09375q0.921875 0.390625 1.96875 0.390625q1.046875 0 2.0 -0.40625q0.953125 -0.40625 1.640625 -1.15625l1.6875 2.765625zm12.546722 -4.40625q0 1.328125 -0.46875 2.484375q-0.46875 1.140625 -1.296875 1.984375q-0.8125 0.828125 -1.921875 1.3125q-1.09375 0.46875 -2.359375 0.46875q-1.25 0 -2.359375 -0.46875q-1.09375 -0.484375 -1.921875 -1.3125q-0.8125 -0.84375 -1.296875 -1.984375q-0.46875 -1.15625 -0.46875 -2.484375q0 -1.34375 0.46875 -2.5q0.484375 -1.15625 1.296875 -1.984375q0.828125 -0.828125 1.921875 -1.296875q1.109375 -0.484375 2.359375 -0.484375q1.265625 0 2.359375 0.453125q1.109375 0.4375 1.921875 1.265625q0.828125 0.828125 1.296875 1.984375q0.46875 1.15625 0.46875 2.5625zm-3.03125 0q0 -0.734375 -0.25 -1.3125q-0.234375 -0.59375 -0.640625 -1.015625q-0.40625 -0.4375 -0.953125 -0.65625q-0.546875 -0.234375 -1.171875 -0.234375q-0.625 0 -1.171875 0.234375q-0.546875 0.21875 -0.953125 0.65625q-0.390625 0.421875 -0.625 1.015625q-0.234375 0.578125 -0.234375 1.3125q0 0.6875 0.234375 1.28125q0.234375 0.578125 0.625 1.015625q0.40625 0.421875 0.953125 0.671875q0.546875 0.25 1.171875 0.25q0.625 0 1.171875 -0.234375q0.546875 -0.234375 0.953125 -0.640625q0.40625 -0.421875 0.640625 -1.015625q0.25 -0.609375 0.25 -1.328125zm19.77652 6.03125l-3.015625 0l0 -7.515625q0 -0.3125 -0.125 -0.59375q-0.109375 -0.28125 -0.3125 -0.484375q-0.203125 -0.21875 -0.484375 -0.328125q-0.28125 -0.109375 -0.59375 -0.109375q-0.296875 0 -0.578125 0.109375q-0.265625 0.109375 -0.46875 0.328125q-0.203125 0.203125 -0.328125 0.484375q-0.109375 0.28125 -0.109375 0.59375l0 7.515625l-3.03125 0l0 -7.515625q0 -0.3125 -0.109375 -0.59375q-0.109375 -0.28125 -0.328125 -0.484375q-0.203125 -0.21875 -0.484375 -0.328125q-0.28125 -0.109375 -0.578125 -0.109375q-0.3125 0 -0.59375 0.109375q-0.265625 0.109375 -0.46875 0.328125q-0.203125 0.203125 -0.328125 0.484375q-0.109375 0.28125 -0.109375 0.59375l0 7.515625l-3.015625 0l0 -11.84375l0.71875 0l0.828125 0.90625q0.625 -0.53125 1.375 -0.828125q0.765625 -0.296875 1.59375 -0.296875q0.828125 0 1.609375 0.3125q0.796875 0.3125 1.390625 1.078125q0.28125 -0.375 0.625 -0.640625q0.359375 -0.265625 0.75 -0.4375q0.390625 -0.171875 0.8125 -0.234375q0.421875 -0.078125 0.828125 -0.078125q0.953125 0 1.765625 0.359375q0.828125 0.359375 1.4375 0.96875q0.625 0.609375 0.96875 1.4375q0.359375 0.828125 0.359375 1.78125l0 7.515625zm17.268753 0l-3.015625 0l0 -7.515625q0 -0.3125 -0.125 -0.59375q-0.109375 -0.28125 -0.3125 -0.484375q-0.203125 -0.21875 -0.484375 -0.328125q-0.28125 -0.109375 -0.59375 -0.109375q-0.296875 0 -0.578125 0.109375q-0.265625 0.109375 -0.46875 0.328125q-0.203125 0.203125 -0.328125 0.484375q-0.109375 0.28125 -0.109375 0.59375l0 7.515625l-3.03125 0l0 -7.515625q0 -0.3125 -0.109375 -0.59375q-0.109375 -0.28125 -0.328125 -0.484375q-0.203125 -0.21875 -0.484375 -0.328125q-0.28125 -0.109375 -0.578125 -0.109375q-0.3125 0 -0.59375 0.109375q-0.265625 0.109375 -0.46875 0.328125q-0.203125 0.203125 -0.328125 0.484375q-0.109375 0.28125 -0.109375 0.59375l0 7.515625l-3.015625 0l0 -11.84375l0.71875 0l0.828125 0.90625q0.625 -0.53125 1.375 -0.828125q0.765625 -0.296875 1.59375 -0.296875q0.828125 0 1.609375 0.3125q0.796875 0.3125 1.390625 1.078125q0.28125 -0.375 0.625 -0.640625q0.359375 -0.265625 0.75 -0.4375q0.390625 -0.171875 0.8125 -0.234375q0.421875 -0.078125 0.828125 -0.078125q0.953125 0 1.765625 0.359375q0.828125 0.359375 1.4375 0.96875q0.625 0.609375 0.96875 1.4375q0.359375 0.828125 0.359375 1.78125l0 7.515625zm13.675018 0l-0.734375 0l-1.171875 -1.625q-0.4375 0.390625 -0.921875 0.734375q-0.46875 0.328125 -1.0 0.578125q-0.53125 0.25 -1.09375 0.390625q-0.5625 0.140625 -1.125 0.140625q-1.2500153 0 -2.3593903 -0.421875q-1.09375 -0.421875 -1.921875 -1.21875q-0.828125 -0.796875 -1.3125 -1.953125q-0.46875 -1.171875 -0.46875 -2.65625q0 -1.375 0.46875 -2.53125q0.484375 -1.15625 1.3125 -1.984375q0.828125 -0.84375 1.921875 -1.296875q1.109375 -0.453125 2.3593903 -0.453125q0.5625 0 1.125 0.140625q0.578125 0.140625 1.109375 0.40625q0.53125 0.25 1.0 0.59375q0.484375 0.34375 0.90625 0.734375l1.171875 -1.40625l0.734375 0l0 11.828125zm-3.046875 -6.03125q0 -0.625 -0.234375 -1.203125q-0.234375 -0.578125 -0.65625 -1.015625q-0.40625 -0.453125 -0.953125 -0.71875q-0.546875 -0.28125 -1.15625 -0.28125q-0.625 0 -1.171875 0.21875q-0.54689026 0.203125 -0.95314026 0.609375q-0.40625 0.40625 -0.640625 1.015625q-0.234375 0.609375 -0.234375 1.375q0 0.78125 0.234375 1.390625q0.234375 0.59375 0.640625 1.0q0.40625 0.40625 0.95314026 0.625q0.546875 0.203125 1.171875 0.203125q0.609375 0 1.15625 -0.265625q0.546875 -0.28125 0.953125 -0.71875q0.421875 -0.453125 0.65625 -1.03125q0.234375 -0.578125 0.234375 -1.203125zm8.366699 6.03125l-3.015625 0l0 -11.84375l0.71875 0l1.0 1.140625q0.734375 -0.65625 1.65625 -1.015625q0.921875 -0.359375 1.921875 -0.359375q1.09375 0 2.046875 0.421875q0.96875 0.40625 1.6875 1.140625q0.71875 0.71875 1.125 1.6875q0.421875 0.96875 0.421875 2.0625l0 6.765625l-3.015625 0l0 -6.765625q0 -0.46875 -0.1875 -0.875q-0.171875 -0.421875 -0.484375 -0.734375q-0.296875 -0.3125 -0.71875 -0.484375q-0.40625 -0.171875 -0.875 -0.171875q-0.46875 0 -0.890625 0.171875q-0.421875 0.171875 -0.734375 0.484375q-0.296875 0.3125 -0.484375 0.734375q-0.171875 0.40625 -0.171875 0.875l0 6.765625zm21.154968 0l-0.71875 0l-1.171875 -1.625q-0.4375 0.390625 -0.921875 0.734375q-0.484375 0.328125 -1.015625 0.578125q-0.53125 0.25 -1.09375 0.390625q-0.546875 0.140625 -1.125 0.140625q-1.25 0 -2.359375 -0.46875q-1.09375 -0.46875 -1.921875 -1.296875q-0.8125 -0.84375 -1.296875 -1.984375q-0.46875 -1.140625 -0.46875 -2.5q0 -1.34375 0.46875 -2.484375q0.484375 -1.15625 1.296875 -1.984375q0.828125 -0.84375 1.921875 -1.3125q1.109375 -0.484375 2.359375 -0.484375q0.40625 0 0.828125 0.0625q0.421875 0.0625 0.828125 0.21875q0.40625 0.140625 0.75 0.390625q0.359375 0.234375 0.609375 0.59375l0 -5.53125l3.03125 0l0 16.5625zm-3.03125 -6.03125q0 -0.625 -0.25 -1.203125q-0.234375 -0.578125 -0.640625 -1.015625q-0.40625 -0.453125 -0.953125 -0.71875q-0.546875 -0.28125 -1.171875 -0.28125q-0.625 0 -1.171875 0.21875q-0.546875 0.21875 -0.953125 0.640625q-0.390625 0.421875 -0.625 1.015625q-0.234375 0.59375 -0.234375 1.34375q0 0.65625 0.234375 1.25q0.234375 0.578125 0.625 1.03125q0.40625 0.4375 0.953125 0.6875q0.546875 0.25 1.171875 0.25q0.625 0 1.171875 -0.265625q0.546875 -0.28125 0.953125 -0.71875q0.40625 -0.453125 0.640625 -1.03125q0.25 -0.578125 0.25 -1.203125zm23.105347 6.03125l-11.109375 0l0 -15.859375l3.171875 0l0 12.6875l7.9375 0l0 3.171875zm4.895813 -15.0625q0 0.421875 -0.171875 0.78125q-0.15625 0.359375 -0.4375 0.640625q-0.265625 0.265625 -0.640625 0.4375q-0.375 0.15625 -0.796875 0.15625q-0.421875 0 -0.796875 -0.15625q-0.359375 -0.171875 -0.640625 -0.4375q-0.265625 -0.28125 -0.421875 -0.640625q-0.15625 -0.359375 -0.15625 -0.78125q0 -0.421875 0.15625 -0.78125q0.15625 -0.375 0.421875 -0.640625q0.28125 -0.28125 0.640625 -0.4375q0.375 -0.15625 0.796875 -0.15625q0.421875 0 0.796875 0.15625q0.375 0.15625 0.640625 0.4375q0.28125 0.265625 0.4375 0.640625q0.171875 0.359375 0.171875 0.78125zm-0.53125 15.0625l-3.03125 0l0 -11.84375l3.03125 0l0 11.84375zm5.3276367 0l-3.015625 0l0 -11.84375l0.71875 0l1.0 1.140625q0.734375 -0.65625 1.65625 -1.015625q0.921875 -0.359375 1.921875 -0.359375q1.09375 0 2.046875 0.421875q0.96875 0.40625 1.6875 1.140625q0.71875 0.71875 1.125 1.6875q0.421875 0.96875 0.421875 2.0625l0 6.765625l-3.015625 0l0 -6.765625q0 -0.46875 -0.1875 -0.875q-0.171875 -0.421875 -0.484375 -0.734375q-0.296875 -0.3125 -0.71875 -0.484375q-0.40625 -0.171875 -0.875 -0.171875q-0.46875 0 -0.890625 0.171875q-0.421875 0.171875 -0.734375 0.484375q-0.296875 0.3125 -0.484375 0.734375q-0.171875 0.40625 -0.171875 0.875l0 6.765625zm14.420563 -2.890625q0.1875 0.046875 0.359375 0.0625q0.171875 0.015625 0.359375 0.015625q0.4375 0 0.84375 -0.109375q0.40625 -0.125 0.765625 -0.34375q0.359375 -0.234375 0.640625 -0.5625q0.28125 -0.328125 0.46875 -0.734375l2.203125 2.234375q-0.421875 0.59375 -0.96875 1.078125q-0.546875 0.46875 -1.1875 0.796875q-0.625 0.328125 -1.328125 0.5q-0.703125 0.171875 -1.4375 0.171875q-1.25 0 -2.359375 -0.453125q-1.09375 -0.46875 -1.921875 -1.296875q-0.828125 -0.84375 -1.3125 -1.984375q-0.46875 -1.140625 -0.46875 -2.515625q0 -1.40625 0.46875 -2.5625q0.484375 -1.15625 1.3125 -1.96875q0.828125 -0.828125 1.921875 -1.28125q1.109375 -0.453125 2.359375 -0.453125q0.734375 0 1.4375 0.171875q0.71875 0.171875 1.34375 0.515625q0.640625 0.328125 1.1875 0.8125q0.5625 0.46875 0.984375 1.078125l-5.671875 6.828125zm1.546875 -6.234375q-0.203125 -0.078125 -0.40625 -0.09375q-0.203125 -0.03125 -0.421875 -0.03125q-0.625 0 -1.171875 0.234375q-0.546875 0.21875 -0.953125 0.640625q-0.40625 0.421875 -0.640625 1.015625q-0.234375 0.59375 -0.234375 1.328125q0 0.171875 0.015625 0.390625q0.03125 0.203125 0.0625 0.421875q0.03125 0.203125 0.09375 0.40625q0.0625 0.203125 0.140625 0.359375l3.515625 -4.671875zm15.465576 9.125l-3.171875 0l0 -15.859375l11.109375 0l0 3.171875l-7.9375 0l0 3.171875l4.765625 0l0 3.171875l-4.765625 0l0 6.34375zm11.4453125 0l-3.015625 0l0 -11.84375l0.71875 0l1.0 1.40625q0.734375 -0.671875 1.65625 -1.03125q0.9375 -0.359375 1.921875 -0.359375l2.671875 0l0 3.015625l-2.671875 0q-0.46875 0 -0.890625 0.171875q-0.421875 0.171875 -0.734375 0.484375q-0.296875 0.3125 -0.484375 0.734375q-0.171875 0.421875 -0.171875 0.890625l0 6.53125zm17.612885 0l-0.734375 0l-1.171875 -1.625q-0.4375 0.390625 -0.921875 0.734375q-0.46875 0.328125 -1.0 0.578125q-0.53125 0.25 -1.09375 0.390625q-0.5625 0.140625 -1.125 0.140625q-1.25 0 -2.359375 -0.421875q-1.09375 -0.421875 -1.921875 -1.21875q-0.828125 -0.796875 -1.3125 -1.953125q-0.46875 -1.171875 -0.46875 -2.65625q0 -1.375 0.46875 -2.53125q0.484375 -1.15625 1.3125 -1.984375q0.828125 -0.84375 1.921875 -1.296875q1.109375 -0.453125 2.359375 -0.453125q0.5625 0 1.125 0.140625q0.578125 0.140625 1.109375 0.40625q0.53125 0.25 1.0 0.59375q0.484375 0.34375 0.90625 0.734375l1.171875 -1.40625l0.734375 0l0 11.828125zm-3.046875 -6.03125q0 -0.625 -0.234375 -1.203125q-0.234375 -0.578125 -0.65625 -1.015625q-0.40625 -0.453125 -0.953125 -0.71875q-0.546875 -0.28125 -1.15625 -0.28125q-0.625 0 -1.171875 0.21875q-0.546875 0.203125 -0.953125 0.609375q-0.40625 0.40625 -0.640625 1.015625q-0.234375 0.609375 -0.234375 1.375q0 0.78125 0.234375 1.390625q0.234375 0.59375 0.640625 1.0q0.40625 0.40625 0.953125 0.625q0.546875 0.203125 1.171875 0.203125q0.609375 0 1.15625 -0.265625q0.546875 -0.28125 0.953125 -0.71875q0.421875 -0.453125 0.65625 -1.03125q0.234375 -0.578125 0.234375 -1.203125zm20.413605 6.03125l-3.015625 0l0 -7.515625q0 -0.3125 -0.125 -0.59375q-0.109375 -0.28125 -0.3125 -0.484375q-0.203125 -0.21875 -0.484375 -0.328125q-0.28125 -0.109375 -0.59375 -0.109375q-0.296875 0 -0.578125 0.109375q-0.265625 0.109375 -0.46875 0.328125q-0.203125 0.203125 -0.328125 0.484375q-0.109375 0.28125 -0.109375 0.59375l0 7.515625l-3.03125 0l0 -7.515625q0 -0.3125 -0.109375 -0.59375q-0.109375 -0.28125 -0.328125 -0.484375q-0.203125 -0.21875 -0.484375 -0.328125q-0.28125 -0.109375 -0.578125 -0.109375q-0.3125 0 -0.59375 0.109375q-0.265625 0.109375 -0.46875 0.328125q-0.203125 0.203125 -0.328125 0.484375q-0.109375 0.28125 -0.109375 0.59375l0 7.515625l-3.015625 0l0 -11.84375l0.71875 0l0.828125 0.90625q0.625 -0.53125 1.375 -0.828125q0.765625 -0.296875 1.59375 -0.296875q0.828125 0 1.609375 0.3125q0.796875 0.3125 1.390625 1.078125q0.28125 -0.375 0.625 -0.640625q0.359375 -0.265625 0.75 -0.4375q0.390625 -0.171875 0.8125 -0.234375q0.421875 -0.078125 0.828125 -0.078125q0.953125 0 1.765625 0.359375q0.828125 0.359375 1.4375 0.96875q0.625 0.609375 0.96875 1.4375q0.359375 0.828125 0.359375 1.78125l0 7.515625zm6.909363 -2.890625q0.1875 0.046875 0.359375 0.0625q0.171875 0.015625 0.359375 0.015625q0.4375 0 0.84375 -0.109375q0.40625 -0.125 0.765625 -0.34375q0.359375 -0.234375 0.640625 -0.5625q0.28125 -0.328125 0.46875 -0.734375l2.203125 2.234375q-0.421875 0.59375 -0.96875 1.078125q-0.546875 0.46875 -1.1875 0.796875q-0.625 0.328125 -1.328125 0.5q-0.703125 0.171875 -1.4375 0.171875q-1.25 0 -2.359375 -0.453125q-1.09375 -0.46875 -1.921875 -1.296875q-0.828125 -0.84375 -1.3125 -1.984375q-0.46875 -1.140625 -0.46875 -2.515625q0 -1.40625 0.46875 -2.5625q0.484375 -1.15625 1.3125 -1.96875q0.828125 -0.828125 1.921875 -1.28125q1.109375 -0.453125 2.359375 -0.453125q0.734375 0 1.4375 0.171875q0.71875 0.171875 1.34375 0.515625q0.640625 0.328125 1.1875 0.8125q0.5625 0.46875 0.984375 1.078125l-5.671875 6.828125zm1.546875 -6.234375q-0.203125 -0.078125 -0.40625 -0.09375q-0.203125 -0.03125 -0.421875 -0.03125q-0.625 0 -1.171875 0.234375q-0.546875 0.21875 -0.953125 0.640625q-0.40625 0.421875 -0.640625 1.015625q-0.234375 0.59375 -0.234375 1.328125q0 0.171875 0.015625 0.390625q0.03125 0.203125 0.0625 0.421875q0.03125 0.203125 0.09375 0.40625q0.0625 0.203125 0.140625 0.359375l3.515625 -4.671875zm20.595428 4.84375q0 0.921875 -0.359375 1.75q-0.34375 0.828125 -0.96875 1.4375q-0.609375 0.609375 -1.4375 0.96875q-0.828125 0.34375 -1.765625 0.34375q-0.84375 0 -1.625 -0.28125q-0.765625 -0.296875 -1.390625 -0.859375q-0.625 0.5625 -1.390625 0.859375q-0.765625 0.28125 -1.625 0.28125q-0.9375 0 -1.765625 -0.34375q-0.8125 -0.359375 -1.421875 -0.96875q-0.609375 -0.609375 -0.96875 -1.4375q-0.34375 -0.828125 -0.34375 -1.75l0 -7.546875l3.015625 0l0 7.546875q0 0.3125 0.109375 0.59375q0.125 0.265625 0.328125 0.46875q0.203125 0.203125 0.46875 0.328125q0.28125 0.109375 0.578125 0.109375q0.3125 0 0.59375 -0.109375q0.28125 -0.125 0.484375 -0.328125q0.21875 -0.203125 0.328125 -0.46875q0.109375 -0.28125 0.109375 -0.59375l0 -7.546875l3.015625 0l0 7.546875q0 0.3125 0.125 0.59375q0.125 0.265625 0.328125 0.46875q0.203125 0.203125 0.46875 0.328125q0.265625 0.109375 0.578125 0.109375q0.3125 0 0.59375 -0.109375q0.28125 -0.125 0.484375 -0.328125q0.203125 -0.203125 0.3125 -0.46875q0.125 -0.28125 0.125 -0.59375l0 -7.546875l3.015625 0l0 7.546875zm13.631439 -1.75q0 1.328125 -0.46875 2.484375q-0.46875 1.140625 -1.296875 1.984375q-0.8125 0.828125 -1.921875 1.3125q-1.09375 0.46875 -2.359375 0.46875q-1.25 0 -2.359375 -0.46875q-1.09375 -0.484375 -1.921875 -1.3125q-0.8125 -0.84375 -1.296875 -1.984375q-0.46875 -1.15625 -0.46875 -2.484375q0 -1.34375 0.46875 -2.5q0.484375 -1.15625 1.296875 -1.984375q0.828125 -0.828125 1.921875 -1.296875q1.109375 -0.484375 2.359375 -0.484375q1.265625 0 2.359375 0.453125q1.109375 0.4375 1.921875 1.265625q0.828125 0.828125 1.296875 1.984375q0.46875 1.15625 0.46875 2.5625zm-3.03125 0q0 -0.734375 -0.25 -1.3125q-0.234375 -0.59375 -0.640625 -1.015625q-0.40625 -0.4375 -0.953125 -0.65625q-0.546875 -0.234375 -1.171875 -0.234375q-0.625 0 -1.171875 0.234375q-0.546875 0.21875 -0.953125 0.65625q-0.390625 0.421875 -0.625 1.015625q-0.234375 0.578125 -0.234375 1.3125q0 0.6875 0.234375 1.28125q0.234375 0.578125 0.625 1.015625q0.40625 0.421875 0.953125 0.671875q0.546875 0.25 1.171875 0.25q0.625 0 1.171875 -0.234375q0.546875 -0.234375 0.953125 -0.640625q0.40625 -0.421875 0.640625 -1.015625q0.25 -0.609375 0.25 -1.328125zm7.729645 6.03125l-3.015625 0l0 -11.84375l0.71875 0l1.0 1.40625q0.734375 -0.671875 1.65625 -1.03125q0.9375 -0.359375 1.921875 -0.359375l2.671875 0l0 3.015625l-2.671875 0q-0.46875 0 -0.890625 0.171875q-0.421875 0.171875 -0.734375 0.484375q-0.296875 0.3125 -0.484375 0.734375q-0.171875 0.421875 -0.171875 0.890625l0 6.53125zm9.3967285 0l-3.03125 0l0 -16.5625l3.03125 0l0 10.4375l4.5 -5.703125l3.484375 0l-3.9375 4.9375l3.9375 6.890625l-3.484375 0l-2.390625 -4.296875l-2.109375 2.78125l0 1.515625z" fill-rule="nonzero"/>
    </g>
  </g>
</svg>