<?xml version="1.0" encoding="utf-8"?>
<svg id="master-artboard" viewBox="0 0 1400 800" xmlns="http://www.w3.org/2000/svg" width="1400px" height="800px" version="1.1" style="shape-rendering:geometricPrecision; text-rendering:geometricPrecision; image-rendering:optimizeQuality; fill-rule:evenodd; clip-rule:evenodd"><defs><style id="ee-google-fonts">@import url(https://fonts.googleapis.com/css?family=Bubbler+One:400);</style></defs><g transform="matrix(4.000000476837158, 0, 0, 4.000000476837158, 27.963870837341005, 66.78645193306141)"><g transform="translate(70  20)">
<path d="M 0 0 H 30 V 100 H 0 V 0 Z" fill="#3da5d9" style="stroke:white; stroke-width:3"/>
</g><g transform="translate(0   20)">
<path d="M0,0 h80 L40,100" fill="#2364aa" style="stroke:white; stroke-width:3"/>
</g><g transform="translate(140  0)">
<path d="M 0 0 L 70 0 L 50 20 L 50 120 L 20 120 L 20 20 Z" fill="#ea7317" style="stroke:white; stroke-width:3"/>
</g><g transform="translate(90  20)">
<g transform="rotate(45 50 50)">
<path d="M50,50 v-50 a50,50 0 1,0 50,50 Z" fill="#fec601" style="stroke:white; stroke-width:3"/>
</g>
</g><g transform="translate(270 20)">
<g transform="skewX(20)">
<path d="M 10 30 H 30 V 100 H 10 V 30 Z" fill="#2364aa" style="stroke:white; stroke-width:3"/>
</g>
<path d="M 60 30 A 30 30 0 0 1 30 60 A 30 30 0 0 1 0 30 A 30 30 0 0 1 30 0 A 30 30 0 0 1 60 30 Z" fill="#2364aa" style="stroke:white; stroke-width:3"/>
<path d="M 0 0 H 30 V 100 H 0 V 0 Z" fill="#2364aa" style="stroke:white; stroke-width:3"/>
</g><g transform="translate(180 20)">
<path d="M 100 50 A 50 50 0 0 1 50 100 A 50 50 0 0 1 0 50 A 50 50 0 0 1 50 0 A 50 50 0 0 1 100 50 Z" fill="#73bfb8" style="stroke:white; stroke-width:3"/>
</g></g><path d="M 117.83092498779297 608.4815063476562 L 116.75093078613281 608.4815063476562 L 112.09092712402344 601.3515014648438 C 111.49759674072266 601.4315185546875 110.84092712402344 601.4881591796875 110.12092590332031 601.521484375 L 110.12092590332031 608.4815063476562 L 109.23092651367188 608.4815063476562 L 109.23092651367188 591.6614990234375 C 114.59092712402344 591.6748657226562 117.27092742919922 593.281494140625 117.27092742919922 596.4815063476562 C 117.27092742919922 599.0548095703125 115.8642578125 600.6315307617188 113.0509262084961 601.2114868164062 L 117.83092498779297 608.4815063476562 M 110.12092590332031 600.5615234375 L 110.36092376708984 600.5814819335938 C 114.38092803955078 600.521484375 116.39093017578125 599.1781616210938 116.39093017578125 596.551513671875 C 116.39093017578125 595.8181762695312 116.21759033203125 595.2081909179688 115.87092590332031 594.7214965820312 C 115.52426147460938 594.2281494140625 115.1375961303711 593.84814453125 114.71092987060547 593.5814819335938 C 113.68425750732422 592.9415283203125 112.15425872802734 592.6048583984375 110.12092590332031 592.571533203125 L 110.12092590332031 600.5615234375 ZM 120.63491821289062 596.4815063476562 L 120.61491394042969 602.821533203125 C 120.61491394042969 604.1614990234375 120.93824768066406 605.3314819335938 121.58491516113281 606.3314819335938 C 122.23158264160156 607.3314819335938 123.03825378417969 607.8314819335938 124.00491333007812 607.8314819335938 C 124.9715805053711 607.8314819335938 126.04158020019531 607.1681518554688 127.21492004394531 605.8414916992188 L 127.21492004394531 596.4815063476562 L 128.09490966796875 596.4815063476562 L 128.09490966796875 608.4815063476562 L 127.21492004394531 608.4815063476562 L 127.21492004394531 607.04150390625 C 126.17491912841797 608.1614990234375 125.04491424560547 608.7214965820312 123.82492065429688 608.7214965820312 C 123.01158142089844 608.7214965820312 122.17158508300781 608.3381958007812 121.30491638183594 607.571533203125 C 120.84491729736328 607.1514892578125 120.46492004394531 606.5348510742188 120.1649169921875 605.7214965820312 C 119.87158203125 604.908203125 119.72491455078125 603.9481811523438 119.72491455078125 602.8414916992188 L 119.74491882324219 596.4815063476562 L 120.63491821289062 596.4815063476562 ZM 131.45889282226562 590.4815063476562 L 132.34890747070312 590.4815063476562 L 132.34890747070312 597.9215087890625 C 133.368896484375 596.7881469726562 134.45556640625 596.2214965820312 135.60890197753906 596.2214965820312 C 136.48890686035156 596.2214965820312 137.368896484375 596.6115112304688 138.2489013671875 597.3914794921875 C 138.71556091308594 597.79150390625 139.09556579589844 598.4014892578125 139.38890075683594 599.2214965820312 C 139.68890380859375 600.0348510742188 139.83889770507812 600.9881591796875 139.83889770507812 602.0814819335938 C 139.83889770507812 603.1815185546875 139.67889404296875 604.1315307617188 139.35890197753906 604.9315185546875 C 139.0388946533203 605.7315063476562 138.62890625 606.3548583984375 138.12890625 606.801513671875 C 137.63555908203125 607.2481689453125 136.9989013671875 607.6048583984375 136.21890258789062 607.8715209960938 C 135.44557189941406 608.1315307617188 134.6988983154297 608.301513671875 133.97889709472656 608.3815307617188 C 133.25889587402344 608.4614868164062 132.4188995361328 608.5015258789062 131.45889282226562 608.5015258789062 L 131.45889282226562 590.4815063476562 M 138.9488983154297 602.29150390625 C 138.9488983154297 600.658203125 138.63555908203125 599.3848266601562 138.00889587402344 598.4714965820312 C 137.38890075683594 597.5581665039062 136.5822296142578 597.1015014648438 135.58889770507812 597.1015014648438 C 134.59556579589844 597.1015014648438 133.51556396484375 597.7748413085938 132.34890747070312 599.1215209960938 L 132.34890747070312 607.5914916992188 C 136.7489013671875 607.5914916992188 138.9488983154297 605.8248291015625 138.9488983154297 602.29150390625 ZM 149.69891357421875 596.4815063476562 L 150.5889129638672 596.4815063476562 L 150.5889129638672 608.79150390625 C 150.5889129638672 609.898193359375 150.45223999023438 610.8615112304688 150.1789093017578 611.6815185546875 C 149.90557861328125 612.5081787109375 149.55224609375 613.1215209960938 149.11891174316406 613.521484375 C 148.31890869140625 614.3081665039062 147.51890563964844 614.7014770507812 146.71890258789062 614.7014770507812 C 145.6655731201172 614.7014770507812 144.65890502929688 614.2515258789062 143.69891357421875 613.3515014648438 L 143.69891357421875 612.2014770507812 C 144.70558166503906 613.2748413085938 145.66891479492188 613.8115234375 146.5889129638672 613.8115234375 C 147.5089111328125 613.8115234375 148.2589111328125 613.3148193359375 148.8389129638672 612.321533203125 C 149.41224670410156 611.3281860351562 149.69891357421875 610.1448364257812 149.69891357421875 608.771484375 L 149.69891357421875 608.3815307617188 C 146.83224487304688 608.2748413085938 144.83224487304688 607.6514892578125 143.69891357421875 606.5115356445312 C 142.70558166503906 605.4915161132812 142.2089080810547 603.9948120117188 142.2089080810547 602.021484375 C 142.2089080810547 598.4881591796875 142.21890258789062 596.6414794921875 142.23890686035156 596.4815063476562 L 143.11891174316406 596.4815063476562 C 143.10557556152344 596.628173828125 143.09890747070312 598.48486328125 143.09890747070312 602.051513671875 C 143.09890747070312 604.1448364257812 143.74557495117188 605.6015014648438 145.03890991210938 606.4215087890625 C 146.19224548339844 607.1414794921875 147.74557495117188 607.5015258789062 149.69891357421875 607.5015258789062 L 149.69891357421875 596.4815063476562 ZM 160.11888122558594 597.3715209960938 L 157.35888671875 597.3715209960938 L 157.35888671875 596.4815063476562 L 160.11888122558594 596.4815063476562 L 160.11888122558594 592.521484375 L 160.99888610839844 592.521484375 L 160.99888610839844 596.4815063476562 L 163.78887939453125 596.4815063476562 L 163.78887939453125 597.3715209960938 L 160.99888610839844 597.3715209960938 L 160.99888610839844 608.4815063476562 L 160.11888122558594 608.4815063476562 L 160.11888122558594 597.3715209960938 ZM 173.50689697265625 602.021484375 C 173.50689697265625 603.1148681640625 173.403564453125 604.071533203125 173.1968994140625 604.8914794921875 C 172.990234375 605.7182006835938 172.73023986816406 606.3548583984375 172.41690063476562 606.801513671875 C 172.1035614013672 607.2481689453125 171.73023986816406 607.608154296875 171.29690551757812 607.8815307617188 C 170.21023559570312 608.5881958007812 169.02023315429688 608.7315063476562 167.72689819335938 608.3115234375 C 167.2735595703125 608.1715087890625 166.80023193359375 607.9114990234375 166.30690002441406 607.531494140625 C 165.81356811523438 607.158203125 165.41357421875 606.5615234375 165.10690307617188 605.7415161132812 C 164.80023193359375 604.9281616210938 164.6468963623047 603.9281616210938 164.6468963623047 602.7415161132812 C 164.6468963623047 600.821533203125 165.0335693359375 599.2581787109375 165.80690002441406 598.051513671875 C 166.5735626220703 596.8448486328125 167.68023681640625 596.2415161132812 169.1269073486328 596.2415161132812 C 170.5735626220703 596.2415161132812 171.6602325439453 596.8081665039062 172.38690185546875 597.9415283203125 C 173.1202392578125 599.0814819335938 173.49356079101562 600.4415283203125 173.50689697265625 602.021484375 M 168.80690002441406 607.6414794921875 L 169.08689880371094 607.6614990234375 L 169.35690307617188 607.6414794921875 C 171.5302276611328 607.434814453125 172.6168975830078 605.6015014648438 172.6168975830078 602.1414794921875 C 172.6168975830078 600.7214965820312 172.33023071289062 599.531494140625 171.75689697265625 598.571533203125 C 171.17689514160156 597.6115112304688 170.25689697265625 597.1315307617188 168.9969024658203 597.1315307617188 C 168.17689514160156 597.1315307617188 167.4969024658203 597.4114990234375 166.95689392089844 597.9714965820312 C 166.01023864746094 598.96484375 165.53689575195312 600.5081787109375 165.53689575195312 602.6015014648438 L 165.53689575195312 602.79150390625 C 165.53689575195312 604.1181640625 165.81024169921875 605.23486328125 166.35690307617188 606.1414794921875 C 166.8968963623047 607.0481567382812 167.71356201171875 607.5481567382812 168.80690002441406 607.6414794921875 ZM 186.73287963867188 605.9415283203125 C 187.452880859375 605.3148193359375 187.81288146972656 604.5548095703125 187.81288146972656 603.6614990234375 C 187.81288146972656 602.7615356445312 187.55288696289062 602.0448608398438 187.0328826904297 601.5115356445312 C 186.51287841796875 600.9714965820312 185.8828887939453 600.571533203125 185.14288330078125 600.3115234375 C 184.4095458984375 600.0448608398438 183.6695556640625 599.7748413085938 182.92288208007812 599.5015258789062 C 182.18289184570312 599.23486328125 181.55288696289062 598.8248291015625 181.0328826904297 598.271484375 C 180.51287841796875 597.7182006835938 180.2528839111328 597.0081787109375 180.2528839111328 596.1414794921875 C 180.2528839111328 594.6414794921875 180.67288208007812 593.521484375 181.51287841796875 592.781494140625 C 182.35289001464844 592.0481567382812 183.35621643066406 591.6815185546875 184.52288818359375 591.6815185546875 C 185.68954467773438 591.6815185546875 186.96954345703125 591.7948608398438 188.36288452148438 592.021484375 L 188.36288452148438 592.9014892578125 C 187.1162109375 592.6815185546875 185.94955444335938 592.571533203125 184.86288452148438 592.571533203125 C 183.76954650878906 592.571533203125 182.876220703125 592.8748168945312 182.18289184570312 593.4815063476562 C 181.4895477294922 594.0881958007812 181.14288330078125 594.94482421875 181.14288330078125 596.051513671875 C 181.14288330078125 597.0115356445312 181.63621520996094 597.7315063476562 182.6228790283203 598.2114868164062 C 183.0762176513672 598.4315185546875 183.56954956054688 598.63818359375 184.10289001464844 598.8314819335938 C 184.63621520996094 599.0248413085938 185.1762237548828 599.2415161132812 185.72288513183594 599.4815063476562 C 186.26954650878906 599.7214965820312 186.76287841796875 600.0048217773438 187.202880859375 600.3314819335938 C 187.64288330078125 600.658203125 188.0028839111328 601.1148681640625 188.2828826904297 601.7014770507812 C 188.56288146972656 602.2881469726562 188.702880859375 602.9682006835938 188.702880859375 603.7415161132812 C 188.702880859375 604.5148315429688 188.52288818359375 605.1981811523438 188.1628875732422 605.79150390625 C 187.80288696289062 606.3848266601562 187.35621643066406 606.84814453125 186.82289123535156 607.1815185546875 C 186.2962188720703 607.521484375 185.68289184570312 607.7948608398438 184.98287963867188 608.0015258789062 C 183.84288024902344 608.3548583984375 182.56288146972656 608.531494140625 181.14288330078125 608.531494140625 L 180.54287719726562 608.531494140625 L 180.54287719726562 607.6414794921875 C 183.38955688476562 607.6414794921875 185.452880859375 607.0748291015625 186.73287963867188 605.9415283203125 ZM 193.95486450195312 608.4815063476562 L 190.33485412597656 591.6815185546875 L 191.21485900878906 591.6815185546875 L 194.5548553466797 607.04150390625 L 197.8948516845703 591.6815185546875 L 198.7748565673828 591.6815185546875 L 195.20486450195312 608.4815063476562 L 193.95486450195312 608.4815063476562 ZM 209.0768585205078 595.4014892578125 L 208.18685913085938 595.3815307617188 C 208.04019165039062 594.5148315429688 207.6835174560547 593.8281860351562 207.11685180664062 593.321533203125 C 206.55018615722656 592.821533203125 205.91351318359375 592.571533203125 205.20684814453125 592.571533203125 C 204.02685546875 592.571533203125 203.09352111816406 593.1748657226562 202.4068603515625 594.3815307617188 C 201.71351623535156 595.5881958007812 201.36685180664062 596.974853515625 201.36685180664062 598.54150390625 C 201.36685180664062 601.7281494140625 201.91685485839844 604.0015258789062 203.01686096191406 605.3615112304688 C 204.1101837158203 606.7214965820312 205.83352661132812 607.46484375 208.18685913085938 607.5914916992188 L 208.18685913085938 600.9915161132812 L 205.83685302734375 600.9915161132812 L 205.83685302734375 600.1015014648438 L 209.0768585205078 600.1015014648438 L 209.0768585205078 608.5015258789062 C 206.75685119628906 608.5015258789062 205.02685546875 608.158203125 203.88685607910156 607.4714965820312 C 203.440185546875 607.1981811523438 202.9901885986328 606.8148193359375 202.53684997558594 606.321533203125 C 202.0768585205078 605.8281860351562 201.70352172851562 605.23486328125 201.41685485839844 604.54150390625 C 200.79685974121094 602.9948120117188 200.48684692382812 600.9881591796875 200.48684692382812 598.521484375 C 200.48684692382812 597.3548583984375 200.6468505859375 596.3081665039062 200.96685791015625 595.3815307617188 C 201.28684997558594 594.4481811523438 201.68685913085938 593.7281494140625 202.16685485839844 593.2214965820312 C 203.1401824951172 592.19482421875 204.12351989746094 591.6815185546875 205.11685180664062 591.6815185546875 C 206.1101837158203 591.6815185546875 207.01686096191406 592.0814819335938 207.83685302734375 592.8815307617188 C 208.66351318359375 593.6815185546875 209.0768585205078 594.521484375 209.0768585205078 595.4014892578125 Z" transform="matrix(6.832319736480713, 0, 0, 6.832319736480713, -64.33229064941406, -3470.32470703125)" style="fill: rgb(51, 51, 51); white-space: pre; color: rgb(51, 51, 51);"/></svg>