<svg version="1.1"
  viewBox="0.0 0.0 960.0 540.0"
  fill="none"
  stroke="none"
  stroke-linecap="square"
  stroke-miterlimit="10"
  xmlns:xlink="http://www.w3.org/1999/xlink" xmlns="http://www.w3.org/2000/svg">

  <mask id="stripes">
    <rect x="0" y="0" width="960" height="960" fill="#ffffff"/>
    <path fill="#000000" d="m145.34814 94.097206l67.33858 0l0 14.456688l-67.33858 0z" fill-rule="evenodd"/>
    <path fill="#000000" d="m145.34814 263.49307l67.33858 0l0 14.456696l-67.33858 0z" fill-rule="evenodd"/>
    <path fill="#000000" d="m145.34814 207.02779l67.33858 0l0 14.45668l-67.33858 0z" fill-rule="evenodd"/>
    <path fill="#000000" d="m145.34814 150.56248l67.33858 0l0 14.456696l-67.33858 0z" fill-rule="evenodd"/>
  </mask>

  <g mask="url(#stripes)">
    <path fill="#ffffff" d="m0 0l960.0 0l0 540.0l-960.0 0z" fill-rule="evenodd"/>
    <path fill="#434343" d="m153.95407 50.699303l0 234.77191c0 9.865143 -2.3477173 17.216614 -7.043152 22.054352c-4.6480255 4.790283 -11.786041 7.185425 -21.41404 7.185425c-5.7863083 0 -11.027161 -0.56915283 -15.722595 -1.707428l0 43.681793c6.118294 1.18573 13.564583 1.778595 22.33889 1.778595c23.572052 0 41.120636 -6.1183167 52.645798 -18.354889c11.525162 -12.284027 17.287735 -30.947235 17.287735 -55.989563l0 -233.4202z" fill-rule="evenodd"/>
    <path fill="#434343" d="m306.06906 90.04138c16.600006 0 24.900024 10.054878 24.900024 30.164642l0 166.97263c0 20.109741 -8.300018 30.164642 -24.900024 30.164642c-16.600037 0 -24.900055 -10.054901 -24.900055 -30.164642l0 -166.97263c0 -20.109764 8.300018 -30.164642 24.900055 -30.164642zm0 -43.681805c-23.619476 0 -41.68979 6.7111626 -54.210953 20.133472c-12.521164 13.374886 -18.781738 32.298927 -18.781738 56.772118l0 160.85434c0 24.473206 6.2605743 43.42096 18.781738 56.84326c12.521164 13.374878 30.591476 20.062347 54.210953 20.062347c23.572021 0 41.61862 -6.6874695 54.13977 -20.062347c12.5686035 -13.422302 18.852905 -32.370056 18.852905 -56.84326l0 -160.85434c0 -24.47319 -6.2843018 -43.397232 -18.852905 -56.772118c-12.521149 -13.42231 -30.567749 -20.133472 -54.13977 -20.133472z" fill-rule="evenodd"/>
    <path fill="#434343" d="m482.61734 94.452255c8.489716 0 14.679169 2.4662933 18.568298 7.3988724c3.9365845 4.9325714 5.9048767 12.948021 5.9048767 24.046333l0 17.074326c0 11.62001 -2.3951416 19.920044 -7.1854553 24.900055c-4.790283 4.9325714 -11.99942 7.3988647 -21.627441 7.3988647l-18.781738 0l0 -80.81845zm-1.707428 124.571396c11.050873 0 18.971436 2.7034454 23.76175 8.110306c4.8377075 5.3594513 7.2565613 15.034897 7.2565613 29.026352l0 26.67862c0 11.050903 -2.0394287 18.852905 -6.118286 23.406067c-4.0788574 4.5057373 -10.339447 6.7585754 -18.781738 6.7585754l-27.532318 0l0 -93.97992zm-69.50668 -168.32434l0 305.98605l75.62497 0c23.904022 0 42.04547 -6.1894226 54.424377 -18.568298c12.378845 -12.378906 18.568298 -30.378082 18.568298 -53.99756l0 -26.25177c0 -34.385773 -11.952026 -55.65753 -35.85608 -63.815277l0 -0.853714c10.4817505 -4.363434 18.26007 -11.501434 23.3349 -21.414047c5.1223145 -9.912582 7.6834717 -22.742035 7.6834717 -38.488358l0 -12.236603c0 -23.85662 -5.6914673 -41.54751 -17.07434 -53.072685c-11.335449 -11.525166 -29.382019 -17.28775 -54.13977 -17.28775z" fill-rule="evenodd"/>
    <path fill="#434343" d="m587.9925 50.699303l0 305.98605l127.20361 0l0 -43.681793l-79.11096 0l0 -262.30426zm97.882996 0l58.12378 175.72324l0 130.26283l48.09265 0l0 -130.26283l58.12384 -175.72324l-46.740967 0l-32.796875 112.3348l-0.85369873 0l-32.796936 -112.3348z" fill-rule="evenodd"/>
    <path fill="#666666" d="m251.546 380.6503l0 86.865265c0 3.6500854 -0.86865234 6.370117 -2.605957 8.160065c-1.7197571 1.7723999 -4.3608246 2.6585999 -7.9232025 2.6585999c-2.1409302 0 -4.080063 -0.21057129 -5.8173676 -0.6317444l0 16.1622c2.2637634 0.4387207 5.0189056 0.65808105 8.265396 0.65808105c8.721649 0 15.214661 -2.2637634 19.478973 -6.7912903c4.2643127 -4.5450745 6.396454 -11.450409 6.396454 -20.716064l0 -86.36511z" fill-rule="evenodd"/>
    <path fill="#666666" d="m307.82864 395.20682c6.1419983 0 9.213013 3.7202759 9.213013 11.160858l0 61.779633c0 7.4405823 -3.0710144 11.160858 -9.213013 11.160858c-6.142029 0 -9.213043 -3.7202759 -9.213043 -11.160858l0 -61.779633c0 -7.4405823 3.0710144 -11.160858 9.213043 -11.160858zm0 -16.1622c-8.739227 0 -15.425262 2.4831238 -20.058075 7.449341c-4.632843 4.9487 -6.94928 11.950562 -6.94928 21.005615l0 59.51584c0 9.055054 2.3164368 16.065704 6.94928 21.031921c4.6328125 4.9487 11.318848 7.4230347 20.058075 7.4230347c8.721649 0 15.398895 -2.4743347 20.031738 -7.4230347c4.6503906 -4.966217 6.975586 -11.976868 6.975586 -21.031921l0 -59.51584c0 -9.055054 -2.3251953 -16.056915 -6.975586 -21.005615c-4.632843 -4.966217 -11.310089 -7.449341 -20.031738 -7.449341z" fill-rule="evenodd"/>
    <path fill="#666666" d="m373.15158 396.83884c3.1412048 0 5.431305 0.9125366 6.87027 2.7375793c1.456543 1.8250427 2.1848145 4.790741 2.1848145 8.897095l0 6.3174744c0 4.2993774 -0.88619995 7.370392 -2.6585999 9.212982c-1.7724304 1.8250427 -4.4398193 2.7375793 -8.002197 2.7375793l-6.9492493 0l0 -29.90271zm-0.6317444 46.091217c4.0888367 0 7.0194397 1.0002747 8.79184 3.0007935c1.789978 1.9830017 2.6849365 5.5628967 2.6849365 10.739716l0 9.871063c0 4.088806 -0.75457764 6.975525 -2.2637634 8.660187c-1.5091858 1.6671143 -3.825592 2.5006714 -6.9492493 2.5006714l-10.186981 0l0 -34.77243zm-25.717499 -62.279755l0 113.214386l27.981262 0c8.844513 0 15.556854 -2.2900696 20.137054 -6.8702393c4.5801697 -4.5801697 6.87027 -11.239838 6.87027 -19.979034l0 -9.713104c0 -12.722687 -4.422241 -20.5932 -13.266754 -23.611542l0 -0.31588745c3.8782349 -1.6144714 6.7562256 -4.2555237 8.633911 -7.9231567c1.8952637 -3.667633 2.8428955 -8.41452 2.8428955 -14.240631l0 -4.527527c0 -8.826904 -2.105835 -15.372528 -6.317505 -19.63681c-4.1941223 -4.264282 -10.871368 -6.396454 -20.031769 -6.396454z" fill-rule="evenodd"/>
    <path fill="#666666" d="m461.78653 379.04462c-8.616364 0 -15.1970825 2.456787 -19.742188 7.370392c-4.527527 4.8960266 -6.791321 11.818939 -6.791321 20.768677c0 6.580719 1.456543 12.485779 4.369629 17.715271c2.9130554 5.2294617 8.037262 11.07312 15.372589 17.530975c5.8261414 5.071533 9.818451 9.414795 11.976929 13.029785c2.1584778 3.6149902 3.2377014 7.7915344 3.2377014 12.529663c0 3.9835205 -0.78967285 6.8702393 -2.369049 8.660187c-1.5618286 1.7723999 -3.8519287 2.6585999 -6.8703003 2.6585999c-6.1419983 0 -9.213013 -3.667633 -9.213013 -11.00293l0 -7.7652283l-16.820343 0l0 6.475403c0 9.160339 2.2111206 16.197327 6.633362 21.1109c4.4222717 4.896057 10.941559 7.344055 19.557953 7.344055c8.739197 0 15.398895 -2.4743347 19.979095 -7.4230347c4.5802 -4.966217 6.8703003 -12.082153 6.8703003 -21.347778c0 -7.124695 -1.4039001 -13.3280945 -4.21167 -18.61023c-2.7902527 -5.2821045 -7.90567 -11.1521 -15.346283 -17.609955c-5.8261414 -5.071533 -9.844788 -9.388458 -12.055908 -12.950806c-2.2111206 -3.5623474 -3.316681 -7.3879395 -3.316681 -11.476746c0 -7.230011 2.9657288 -10.845001 8.897156 -10.845001c2.9130554 0 5.124176 0.894989 6.633362 2.6849365c1.5091858 1.7723999 2.263794 4.5977173 2.263794 8.475922l0 5.8173523l16.820343 0l0 -4.6854553c0 -9.160339 -2.1848145 -16.188538 -6.554413 -21.084564c-4.3695984 -4.9136047 -10.809937 -7.370392 -19.321045 -7.370392z" fill-rule="evenodd"/>
    <path fill="#666666" d="m498.17978 380.6503l0 113.214386l48.513153 0l0 -16.1622l-30.718872 0l0 -34.77243l24.401367 0l0 -16.188507l-24.401367 0l0 -29.90271l30.718872 0l0 -16.188538z" fill-rule="evenodd"/>
    <path fill="#666666" d="m582.76245 396.83884c3.1236572 0 5.4137573 0.9125366 6.8703003 2.7375793c1.456543 1.8250427 2.1848145 4.790741 2.1848145 8.897095l0 8.739166c0 4.3169556 -0.89501953 7.3879395 -2.6849365 9.212982c-1.7723999 1.8250427 -4.4310303 2.7375793 -7.975891 2.7375793l-6.475403 0l0 -32.3244zm-25.875427 -16.188538l0 113.214386l17.794312 0l0 -48.51294l6.1332397 0c4.1063843 0 6.993103 1.0266113 8.660217 3.079773c1.6671143 2.0356445 2.5006714 5.641876 2.5006714 10.818695l0 20.716034c0 4.194092 0.10534668 7.107147 0.31591797 8.739166c0.22814941 1.6144714 0.6668091 3.3342285 1.3161621 5.1592712l18.110168 0c-0.8599243 -1.947876 -1.4039307 -3.91333 -1.632019 -5.8963013c-0.21063232 -2.0005493 -0.31591797 -4.615265 -0.31591797 -7.844208l0 -19.900024c0 -6.6860046 -0.8949585 -12.020752 -2.6849365 -16.004272c-1.7723999 -4.001068 -4.8170776 -6.6421204 -9.134033 -7.9231567l0 -0.3421936c7.774048 -3.1236572 11.661072 -10.55545 11.661072 -22.29541l0 -6.9755554c0 -8.826904 -2.105835 -15.372528 -6.317505 -19.63681c-4.194153 -4.264282 -10.880188 -6.396454 -20.058105 -6.396454z" fill-rule="evenodd"/>
    <path fill="#666666" d="m616.731 380.6503l17.13623 113.214386l23.611694 0l17.13623 -113.214386l-16.320251 0l-11.661072 87.8129l-0.31585693 0l-11.634705 -87.8129z" fill-rule="evenodd"/>
    <path fill="#666666" d="m683.19666 380.6503l0 113.214386l48.513123 0l0 -16.1622l-30.718872 0l0 -34.77243l24.401367 0l0 -16.188507l-24.401367 0l0 -29.90271l30.718872 0l0 -16.188538z" fill-rule="evenodd"/>
    <path fill="#666666" d="m767.7793 396.83884c3.1236572 0 5.4137573 0.9125366 6.8703003 2.7375793c1.456543 1.8250427 2.1848145 4.790741 2.1848145 8.897095l0 8.739166c0 4.3169556 -0.89501953 7.3879395 -2.6849365 9.212982c-1.7723999 1.8250427 -4.4310303 2.7375793 -7.975891 2.7375793l-6.475403 0l0 -32.3244zm-25.875427 -16.188538l0 113.214386l17.794312 0l0 -48.51294l6.1332397 0c4.1063843 0 6.993103 1.0266113 8.660217 3.079773c1.6671143 2.0356445 2.5006714 5.641876 2.5006714 10.818695l0 20.716034c0 4.194092 0.105285645 7.107147 0.31591797 8.739166c0.22814941 1.6144714 0.6668701 3.3342285 1.3161011 5.1592712l18.11023 0c-0.8599243 -1.947876 -1.4039307 -3.91333 -1.632019 -5.8963013c-0.21063232 -2.0005493 -0.31591797 -4.615265 -0.31591797 -7.844208l0 -19.900024c0 -6.6860046 -0.8949585 -12.020752 -2.6849365 -16.004272c-1.7723999 -4.001068 -4.8170776 -6.6421204 -9.134033 -7.9231567l0 -0.3421936c7.774048 -3.1236572 11.661072 -10.55545 11.661072 -22.29541l0 -6.9755554c0 -8.826904 -2.105835 -15.372528 -6.317505 -19.63681c-4.194153 -4.264282 -10.880188 -6.396454 -20.058105 -6.396454z" fill-rule="evenodd"/>
  </g>
</svg>