<svg version="1.1" viewBox="0.0 0.0 960.0 268.8005249343832" fill="none" stroke="none" stroke-linecap="square" stroke-miterlimit="10" xmlns:xlink="http://www.w3.org/1999/xlink" xmlns="http://www.w3.org/2000/svg"><clipPath id="p.0"><path d="m0 0l960.0 0l0 268.80054l-960.0 0l0 -268.80054z" clip-rule="nonzero"/></clipPath><g clip-path="url(#p.0)"><path fill="#ffffff" d="m0 0l960.0 0l0 268.80054l-960.0 0z" fill-rule="evenodd"/><path fill="#434343" d="m111.25801 100.8551c3.60923 0 6.3692245 0.91999817 8.279991 2.7599945c1.9107666 1.8399963 2.86615 4.670761 2.86615 8.492294l0 37.153763c0 3.6092224 -0.91999817 6.369217 -2.7599945 8.2799835c-1.8399963 1.9107666 -4.6353836 2.86615 -8.386147 2.86615l-49.573807 0c-3.6799965 0 -6.47538 -0.9553833 -8.386147 -2.86615c-1.9107666 -1.9107666 -2.86615 -4.670761 -2.86615 -8.2799835l0 -37.366074c0 -3.6092224 0.9553833 -6.345619 2.86615 -8.209213c1.9107666 -1.8871689 4.70615 -2.8307648 8.386147 -2.8307648zm-49.786114 -27.599937c-3.8215332 0 -7.9969177 0.67230225 -12.526142 2.0169144c-4.529228 1.3446121 -8.72821 3.5620499 -12.596912 6.652298c-3.8451385 3.066658 -7.065134 7.065117 -9.659992 11.995361c-2.5712929 4.9066544 -3.8569202 10.8984375 -3.8569202 17.975342l0 37.366074c0 7.14769 1.2856274 13.1866455 3.8569202 18.116898c2.5948582 4.9066467 5.8148537 8.905106 9.659992 11.995361c3.868702 3.0666504 8.067684 5.272293 12.596912 6.6168976c4.5292244 1.3446198 8.704609 2.016922 12.526142 2.016922l49.786114 0c2.6184616 0 5.390236 -0.2948761 8.315376 -0.88461304c2.9487076 -0.6133423 5.8502426 -1.5569153 8.704613 -2.8307648c2.8779297 -1.2738342 5.6261444 -2.91333 8.244598 -4.918442c2.6184692 -2.0287323 4.918457 -4.4702606 6.899994 -7.3246c1.9815369 -2.8779602 3.5738525 -6.2041016 4.776932 -9.978455c1.203064 -3.797943 1.8046112 -8.067673 1.8046112 -12.809204l0 -37.366074c0 -3.8922958 -0.6959076 -8.103058 -2.0876923 -12.632278c-1.3682251 -4.5292206 -3.5738525 -8.7163925 -6.616913 -12.561516c-3.0430756 -3.8687057 -7.0415344 -7.0769043 -11.995377 -9.624596c-4.95385 -2.5476837 -10.969231 -3.8215256 -18.046143 -3.8215256z" fill-rule="evenodd"/><path fill="#434343" d="m211.5733 73.255165c-2.5476837 0 -5.295883 0.3066635 -8.244598 0.91999817c-2.9251251 0.58974457 -5.82666 1.5215302 -8.704605 2.7953796c-2.8543549 1.2738419 -5.5907745 2.9251251 -8.2092285 4.9538345c-2.618454 2.005127 -4.942047 4.4466553 -6.970764 7.3246c-2.005127 2.8543549 -3.6092224 6.156906 -4.8123016 9.907669c-1.2030792 3.750763 -1.8046112 7.99691 -1.8046112 12.738434l0 111.99208l27.599976 0l0 -111.99208c0 -3.6092224 0.9553833 -6.345619 2.86615 -8.209213c1.9107666 -1.8871689 4.7415314 -2.8307648 8.492294 -2.8307648l49.573822 0c3.6092224 0 6.3456116 0.91999817 8.209198 2.7599945c1.887207 1.8399963 2.83078 4.670761 2.83078 8.492294l0 37.153763c0 3.6092224 -0.9200134 6.369217 -2.7600098 8.2799835c-1.8399963 1.9107666 -4.5999756 2.86615 -8.279968 2.86615l-49.786133 0l0 27.599945l49.786133 0c2.6184387 0 5.3784485 -0.2948761 8.279968 -0.88461304c2.9015503 -0.6133423 5.7795105 -1.5569153 8.63385 -2.8307648c2.8779602 -1.2738342 5.6261597 -2.91333 8.244598 -4.918442c2.6184692 -2.0287323 4.918457 -4.4702606 6.899994 -7.3246c1.9815369 -2.8779602 3.5738525 -6.2041016 4.7769165 -9.978455c1.2030945 -3.797943 1.8046265 -8.067673 1.8046265 -12.809204l0 -37.366074c0 -2.618454 -0.30667114 -5.3784485 -0.9200134 -8.2799835c-0.5897217 -2.9015274 -1.5215149 -5.7794724 -2.7953796 -8.633827c-1.2738342 -2.8779373 -2.9251099 -5.626137 -4.953827 -8.244598c-2.005127 -2.618454 -4.4466553 -4.9184494 -7.3246155 -6.8999863c-2.8543396 -1.9815292 -6.1569214 -3.5738373 -9.907684 -4.776909c-3.750763 -1.2030792 -7.9969177 -1.8046112 -12.738434 -1.8046112z" fill-rule="evenodd"/><path fill="#434343" d="m359.87012 73.255165c-4.7415466 0 -8.987701 0.601532 -12.738464 1.8046112c-3.750763 1.2030716 -7.0651245 2.7953796 -9.943054 4.776909c-2.85437 1.9815369 -5.2958984 4.2815323 -7.3246155 6.8999863c-2.005127 2.6184616 -3.6446228 5.366661 -4.918457 8.244598c-1.2738647 2.8543549 -2.2174377 5.7323 -2.83078 8.633827c-0.5897522 2.901535 -0.88461304 5.6615295 -0.88461304 8.2799835l0 37.366074c0 7.14769 1.2856445 13.1866455 3.8569336 18.116898c2.5948486 4.9066467 5.81485 8.905106 9.659973 11.995361c3.8687134 3.0666504 8.067688 5.272293 12.596924 6.6168976c4.529236 1.3446198 8.70462 2.016922 12.526154 2.016922l74.83838 0l0 -27.599945l-74.62607 0c-3.6800232 0 -6.475403 -0.9553833 -8.386169 -2.86615c-1.9107666 -1.9107666 -2.86615 -4.670761 -2.86615 -8.2799835l0 -37.153763c0 -3.8215332 0.9317932 -6.652298 2.7953796 -8.492294c1.8871765 -1.8399963 4.6354065 -2.7599945 8.244629 -2.7599945l74.83838 0l0 -27.599937z" fill-rule="evenodd"/><path fill="#434343" d="m542.773 100.8551c3.609253 0 6.3692627 0.91999817 8.280029 2.7599945c1.9107666 1.8399963 2.86615 4.670761 2.86615 8.492294l0 37.153763c0 3.6092224 -0.92004395 6.369217 -2.7600098 8.2799835c-1.8400269 1.9107666 -4.635376 2.86615 -8.386169 2.86615l-49.57379 0c-3.6799927 0 -6.4753723 -0.9553833 -8.386139 -2.86615c-1.9107666 -1.9107666 -2.86615 -4.670761 -2.86615 -8.2799835l0 -37.366074c0 -3.6092224 0.9553833 -6.345619 2.86615 -8.209213c1.9107666 -1.8871689 4.7061462 -2.8307648 8.386139 -2.8307648zm-49.786102 -27.599937c-3.8215332 0 -7.9969177 0.67230225 -12.526123 2.0169144c-4.529236 1.3446121 -8.72821 3.5620499 -12.596924 6.652298c-3.8451233 3.066658 -7.0651245 7.065117 -9.660004 11.995361c-2.5712585 4.9066544 -3.856903 10.8984375 -3.856903 17.975342l0 37.366074c0 7.14769 1.2856445 13.1866455 3.856903 18.116898c2.5948792 4.9066467 5.8148804 8.905106 9.660004 11.995361c3.8687134 3.0666504 8.067688 5.272293 12.596924 6.6168976c4.5292053 1.3446198 8.70459 2.016922 12.526123 2.016922l49.786102 0c2.6184692 0 5.390259 -0.2948761 8.315369 -0.88461304c2.9487305 -0.6133423 5.850281 -1.5569153 8.704651 -2.8307648c2.8779297 -1.2738342 5.6261597 -2.91333 8.244568 -4.918442c2.6184692 -2.0287323 4.918457 -4.4702606 6.9000244 -7.3246c1.9815063 -2.8779602 3.5738525 -6.2041016 4.7769165 -9.978455c1.203064 -3.797943 1.8046265 -8.067673 1.8046265 -12.809204l0 -37.366074c0 -3.8922958 -0.69592285 -8.103058 -2.0877075 -12.632278c-1.3682251 -4.5292206 -3.5738525 -8.7163925 -6.6169434 -12.561516c-3.0430298 -3.8687057 -7.041504 -7.0769043 -11.995361 -9.624596c-4.9537964 -2.5476837 -10.969177 -3.8215256 -18.046143 -3.8215256z" fill-rule="evenodd"/><path fill="#434343" d="m703.2775 24.742954l0 124.5182c0 3.6092224 -0.92004395 6.369217 -2.7600098 8.2799835c-1.8400269 1.9107666 -4.635376 2.86615 -8.386169 2.86615l-49.78607 0c-3.609253 0 -6.357422 -0.9553833 -8.244629 -2.86615c-1.8635864 -1.9107666 -2.7954102 -4.741516 -2.7954102 -8.492279l0 -37.153778c0 -3.6092224 0.9553833 -6.345619 2.86615 -8.209213c1.9107666 -1.8871689 4.7061768 -2.8307648 8.386169 -2.8307648l49.57379 0l0 -27.599937l-49.78607 0c-3.8215332 0 -7.9969482 0.67230225 -12.526184 2.0169144c-4.529236 1.3446121 -8.728149 3.5620499 -12.596863 6.652298c-3.8451538 3.066658 -7.0651245 7.065117 -9.660034 11.995361c-2.571289 4.9066544 -3.8569336 10.8984375 -3.8569336 17.975342l0 37.366074c0 2.547699 0.29492188 5.295883 0.88464355 8.244598c0.6133423 2.9251251 1.5569458 5.82666 2.8307495 8.704605c1.2738647 2.8543396 2.91333 5.5907593 4.918457 8.209213c2.0287476 2.618454 4.470276 4.942032 7.324646 6.970749c2.8779297 2.005127 6.1922607 3.6092224 9.943054 4.8123016c3.7507324 1.2030792 7.996887 1.8046112 12.738464 1.8046112l49.78607 0c2.6184692 0 5.390259 -0.2948761 8.315369 -0.88461304c2.9487305 -0.6133423 5.850281 -1.5569153 8.704651 -2.8307648c2.8779297 -1.2738342 5.6261597 -2.91333 8.244568 -4.918442c2.6184692 -2.0287323 4.918457 -4.4702606 6.9000244 -7.3246c1.9815063 -2.8779602 3.5738525 -6.2041016 4.7769165 -9.978455c1.203064 -3.797943 1.8046265 -8.067673 1.8046265 -12.809204l0 -124.5182z" fill-rule="evenodd"/><path fill="#434343" d="m792.8713 73.255165c-6.935364 0 -12.832825 1.2738419 -17.69226 3.8215256c-4.8359375 2.5476913 -8.763611 5.7205048 -11.783081 9.518448c-2.9959106 3.774353 -5.1661377 7.8789597 -6.510803 12.31382c-1.3446045 4.41127 -2.0169067 8.527672 -2.0169067 12.349205l0 38.74608c0 6.935364 1.2738647 12.832779 3.8215332 17.69226c2.5477295 4.8358917 5.70874 8.763565 9.483093 11.783051c3.7979126 2.9958954 7.902527 5.166153 12.313843 6.5107574c4.4348145 1.3446198 8.563049 2.016922 12.3845825 2.016922l49.786133 0l0 -26.326096l-49.57379 0c-3.3969727 0 -6.251343 -1.0261536 -8.56311 -3.0784607c-2.288208 -2.0523071 -3.432312 -4.918442 -3.432312 -8.598434l0 -38.533775c0 -3.3969116 1.0261841 -6.2394714 3.0784912 -8.527672c2.0523071 -2.3117905 4.9538574 -3.4676895 8.70459 -3.4676895l49.786133 0c3.255371 0 6.0271606 1.0261536 8.315369 3.0784607c2.3117676 2.0522995 3.4677124 4.8830643 3.4677124 8.492287c0 3.3969193 -1.0261841 6.251274 -3.0784912 8.563065c-2.0523071 2.2882004 -4.9538574 3.4322968 -8.70459 3.4322968l-49.786133 0l0 26.21994l49.786133 0c6.935364 0 12.820984 -1.2738342 17.656921 -3.821518c4.859436 -2.547699 8.787109 -5.708725 11.78302 -9.483063c3.0194702 -3.797943 5.201538 -7.9025574 6.5461426 -12.31382c1.3446655 -4.43486 2.0169678 -8.563065 2.0169678 -12.38459c0 -6.9353714 -1.2738647 -12.820999 -3.8215332 -17.65689c-2.5477295 -4.859474 -5.72052 -8.787155 -9.518494 -11.783051c-3.774353 -3.0194778 -7.8789673 -5.2015305 -12.313843 -6.5461426c-4.411255 -1.3446121 -8.527649 -2.0169144 -12.349182 -2.0169144z" fill-rule="evenodd"/><path fill="#666666" d="m255.88927 216.3099c3.214035 0 5.5344696 0.9360657 6.9613495 2.8081818c1.43396 1.8650665 2.1509094 4.966446 2.1509094 9.304123c0 3.991516 -0.7381592 6.8668213 -2.2144775 8.6259c-1.4692688 1.7590942 -3.7897034 2.6386414 -6.9613495 2.6386414c-3.1221924 0 -5.4002533 -0.93252563 -6.8342133 -2.7975922c-1.4339447 -1.8650513 -2.1509094 -4.99115 -2.1509094 -9.378296c0 -3.9491272 0.7275543 -6.803238 2.1827087 -8.562317c1.4551392 -1.7590942 3.743805 -2.6386414 6.865982 -2.6386414zm-38.146072 -13.860809l0.45561218 29.226364l-0.45561218 12.567978l21.477402 0l0.52978516 -5.0123444l-0.45561218 -0.58283997l-14.908096 0l-0.13774109 -7.5556183l0.3920288 -28.64354zm38.72882 8.721283c-5.16362 0 -9.144043 1.4871063 -11.941299 4.461319c-2.7972565 2.9742126 -4.195877 7.1953278 -4.195877 12.663345c0 5.2490234 1.2997284 9.307648 3.8992004 12.175888c2.6065369 2.8611755 6.3185577 4.2917633 11.136032 4.2917633c5.16362 0 9.144058 -1.5189056 11.94133 -4.5566864c2.8042908 -3.037796 4.2064514 -7.378998 4.2064514 -13.023651c0 -5.0794525 -1.3138428 -9.01799 -3.9415588 -11.815582c-2.6277466 -2.7975922 -6.3291626 -4.196396 -11.104279 -4.196396z" fill-rule="evenodd"/><path fill="#666666" d="m292.79767 211.23396c-5.1636353 0 -9.1440735 1.4659119 -11.941315 4.3977356c-2.7972717 2.924759 -4.1958923 7.099945 -4.1958923 12.525589c0 5.298462 1.3209229 9.381821 3.9627686 12.250061c2.6489258 2.8611755 6.4704285 4.2917633 11.464508 4.2917633c3.0798035 0 6.074829 -0.6711426 8.985138 -2.0134277l0.51916504 -5.5421906l-0.6569214 -0.31791687c-1.1655273 0.8195038 -2.5076294 1.4694519 -4.0263367 1.9498444c-1.5187378 0.47332764 -3.0162659 0.70999146 -4.492584 0.70999146c-2.9950256 0 -5.2766113 -1.0067139 -6.8447876 -3.0201263c-1.5610962 -2.0204773 -2.3416443 -4.984085 -2.3416443 -8.890839c0 -7.4673157 2.9950562 -11.200958 8.985138 -11.200958c1.5187073 0 2.984436 0.2401886 4.3971863 0.72058105c1.4127502 0.48039246 2.6595154 1.1303406 3.740265 1.9498444l0.5827637 -0.19075012l1.176117 -5.531601c-2.6488953 -1.3917236 -5.7534485 -2.0876007 -9.313568 -2.0876007z" fill-rule="evenodd"/><path fill="#666666" d="m320.98914 217.48616l4.61969 14.252884l-5.2024536 0.063583374l-5.1495056 -0.063583374l5.276642 -14.252884zm-3.708496 -5.8601074l-12.174408 32.617386l6.187866 0l0.91122437 -4.3659363l1.2290955 -3.2532654l6.516327 -0.063583374l7.2898254 0.063583374l1.176117 3.5817719l0.83706665 4.03743l6.3150024 0l-10.998291 -32.617386z" fill-rule="evenodd"/><path fill="#666666" d="m342.7392 211.62605l0.25430298 22.847015l-0.25430298 9.7703705l18.097412 0l0.45559692 -4.683838l-0.3920288 -0.52986145l-12.047272 0l-0.063568115 -5.139511l0.3284607 -22.264175z" fill-rule="evenodd"/><path fill="#666666" d="m394.09686 201.99344c-6.0748596 0 -10.772247 1.8897858 -14.092224 5.6693573c-3.3199768 3.7725067 -4.97995 9.131027 -4.97995 16.075562c0 6.725525 1.5822754 11.910965 4.7468567 15.556305c3.1716309 3.6453552 7.6853943 5.468033 13.54126 5.468033c3.6448975 0 7.335724 -0.91134644 11.072449 -2.7340088l0.51919556 -6.114441l-0.6463318 -0.39208984c-1.5187073 1.1232758 -3.178711 2.0028229 -4.9799805 2.6386414c-1.801239 0.62875366 -3.6130981 0.9431305 -5.4355774 0.9431305c-3.7790833 0 -6.6893616 -1.3670044 -8.730804 -4.101013c-2.0414429 -2.7410736 -3.0621643 -6.7361298 -3.0621643 -11.985153c0 -5.1218567 1.0101318 -8.972076 3.030365 -11.550659c2.0202332 -2.5856628 4.941101 -3.878479 8.762604 -3.878479c3.5107117 0 6.7211914 1.1268005 9.63147 3.3804169l0.6463318 -0.19073486l1.239685 -5.923691c-3.2563782 -1.9074554 -7.0107727 -2.8611755 -11.263184 -2.8611755z" fill-rule="evenodd"/><path fill="#666666" d="m424.7579 216.3099c3.2140198 0 5.5344543 0.9360657 6.961334 2.8081818c1.43396 1.8650665 2.15094 4.966446 2.15094 9.304123c0 3.991516 -0.7381897 6.8668213 -2.214508 8.6259c-1.4692688 1.7590942 -3.7897034 2.6386414 -6.961334 2.6386414c-3.1221924 0 -5.4002686 -0.93252563 -6.834198 -2.7975922c-1.43396 -1.8650513 -2.15094 -4.99115 -2.15094 -9.378296c0 -3.9491272 0.7275696 -6.803238 2.1827087 -8.562317c1.4551392 -1.7590942 3.743805 -2.6386414 6.8659973 -2.6386414zm0.5827637 -5.1395264c-5.1636353 0 -9.1440735 1.4871063 -11.941315 4.461319c-2.7972717 2.9742126 -4.1958923 7.1953278 -4.1958923 12.663345c0 5.2490234 1.2997437 9.307648 3.8992004 12.175888c2.6065369 2.8611755 6.3185425 4.2917633 11.136047 4.2917633c5.1636047 0 9.144043 -1.5189056 11.941315 -4.5566864c2.8043213 -3.037796 4.206482 -7.378998 4.206482 -13.023651c0 -5.0794525 -1.3138733 -9.01799 -3.9415894 -11.815582c-2.627716 -2.7975922 -6.329132 -4.196396 -11.104248 -4.196396z" fill-rule="evenodd"/><path fill="#666666" d="m450.02167 211.62605l-3.5177612 32.617386l5.276642 0l0.83706665 -10.480377l1.4410095 -12.695129l0.51919556 0l7.8089905 19.720901l4.884613 0l8.465912 -19.720901l0.38146973 0l1.5045776 13.277969l0.6463318 9.897537l5.530945 0l-3.1893005 -32.617386l-7.088501 0l-1.6317444 4.7474365l-6.5057373 16.149734l-0.45559692 0l-6.124298 -16.075562l-1.493988 -4.8216095z" fill-rule="evenodd"/><path fill="#666666" d="m494.54987 211.62605l-3.5177307 32.617386l5.2766113 0l0.83706665 -10.480377l1.4410095 -12.695129l0.51919556 0l7.8089905 19.720901l4.884613 0l8.465942 -19.720901l0.3814087 0l1.5045776 13.277969l0.6463623 9.897537l5.530945 0l-3.189331 -32.617386l-7.08844 0l-1.6317749 4.7474365l-6.5057373 16.149734l-0.45559692 0l-6.124298 -16.075562l-1.493988 -4.8216095z" fill-rule="evenodd"/><path fill="#666666" d="m549.2287 217.48616l4.619751 14.252884l-5.2025146 0.063583374l-5.149475 -0.063583374l5.2766724 -14.252884zm-3.708435 -5.8601074l-12.174438 32.617386l6.187866 0l0.9112549 -4.3659363l1.229065 -3.2532654l6.5163574 -0.063583374l7.289795 0.063583374l1.1761475 3.5817719l0.83703613 4.03743l6.3150024 0l-10.998291 -32.617386z" fill-rule="evenodd"/><path fill="#666666" d="m599.41754 211.49889l-5.7852173 0.31791687l0.19073486 22.730438l-0.5192261 0l-15.427246 -22.921188l-6.6434937 0l0.20129395 23.048355l-0.26489258 9.569031l5.658142 0l-0.19073486 -11.063202l0.0635376 -11.857986l0.39208984 0l15.427246 22.921188l6.77063 0l-0.19073486 -9.961121l0.3178711 -22.783432z" fill-rule="evenodd"/><path fill="#666666" d="m623.18787 216.57483c3.2069092 0 5.5909424 0.92193604 7.1520386 2.7657928c1.5681763 1.8438721 2.352234 4.7827606 2.352234 8.816666c0 3.8643494 -0.82647705 6.753784 -2.47937 8.668289c-1.645874 1.9074554 -4.012207 2.8611755 -7.099121 2.8611755c-1.2573242 0 -3.5142212 -0.15188599 -6.77063 -0.45565796l-0.12713623 -5.340866l0.26489258 -17.06108c1.7800903 -0.1695404 4.015747 -0.25431824 6.7070923 -0.25431824zm0.4555664 -5.2136993l-13.4140625 0.2649231l0.26489258 22.847015l-0.26489258 9.7703705c3.7720337 0.2190094 7.720703 0.32850647 11.845947 0.32850647c5.467346 0 9.677368 -1.5294952 12.630005 -4.5884705c2.9526367 -3.0660553 4.429016 -7.4849854 4.429016 -13.256775c0 -4.9452515 -1.335083 -8.742477 -4.005188 -11.391724c-2.670105 -2.649231 -6.498657 -3.9738464 -11.485718 -3.9738464z" fill-rule="evenodd"/><path fill="#666666" d="m669.98553 201.99344c-2.776062 0 -5.248413 0.533371 -7.416992 1.6001282c-2.168579 1.0596924 -3.8603516 2.5220795 -5.0753174 4.387146c-1.2149658 1.8650513 -1.8224487 3.9243927 -1.8224487 6.178009c0 2.0840607 0.50860596 3.8643494 1.5257568 5.340866c1.024292 1.4765015 2.249817 2.6598206 3.6766968 3.5499725c1.43396 0.8901367 3.3023071 1.8791809 5.6051025 2.9671478c2.6913452 1.2574921 4.6868286 2.3984375 5.9865723 3.4228058c1.2997437 1.0173035 1.949585 2.3489838 1.949585 3.995041c0 1.653122 -0.67456055 3.0766602 -2.0237427 4.270569c-1.342102 1.1868591 -3.1398315 1.7802887 -5.3931885 1.7802887c-1.6529541 0 -3.4436035 -0.3779602 -5.3720093 -1.1338654c-1.9284058 -0.7629852 -3.697876 -1.9039154 -5.3084106 -3.422821l-0.84765625 0.39208984l-0.84765625 6.644287c1.8295288 0.9113312 3.7614746 1.607193 5.7958374 2.0876007c2.0414429 0.47332764 4.015747 0.70999146 5.9229736 0.70999146c2.867859 0 5.4179077 -0.55104065 7.6500244 -1.653122c2.2392578 -1.1091461 3.9769287 -2.6068573 5.2130737 -4.493103c1.236206 -1.8933258 1.854248 -3.9667969 1.854248 -6.220413c0 -2.0840607 -0.5227051 -3.874939 -1.5681763 -5.37265c-1.0383301 -1.4976959 -2.2850952 -2.7022247 -3.7402344 -3.613556c-1.4551392 -0.9113312 -3.3517456 -1.9321747 -5.6898804 -3.0625153c-2.6912842 -1.2575073 -4.6691284 -2.3737183 -5.9335938 -3.3486328c-1.2573242 -0.98197937 -1.8859863 -2.2324219 -1.8859863 -3.7513123c0 -1.5612946 0.6286621 -2.928299 1.8859863 -4.1010284c1.2644653 -1.1727295 2.9597168 -1.759079 5.0859375 -1.759079c1.342102 0 2.7513428 0.2825775 4.227661 0.8477478c1.4763184 0.5651703 2.9102783 1.34935 4.30188 2.3525238l1.0383301 -0.39208984l1.1019897 -6.1250305c-3.2988281 -1.3846741 -6.597595 -2.0769958 -9.896362 -2.0769958z" fill-rule="evenodd"/><path fill="#666666" d="m689.0 211.62605l0.26489258 22.847015l-0.26489258 9.7703705l6.251404 0l-0.26489258 -10.35321l0.06359863 -3.2532654l7.6818237 -0.12715149l8.402405 0.063568115l0.0635376 3.8996887l-0.19073486 9.7703705l6.2408447 0l-0.25427246 -10.35321l0.3284912 -22.264175l-6.3150635 0l0.12719727 13.606476l-7.9467773 0.063583374l-8.073914 -0.12716675l0.20135498 -13.542892z" fill-rule="evenodd"/><path fill="#666666" d="m739.9056 216.3099c3.2140503 0 5.534485 0.9360657 6.9613647 2.8081818c1.43396 1.8650665 2.15094 4.966446 2.15094 9.304123c0 3.991516 -0.7381592 6.8668213 -2.2145386 8.6259c-1.4692383 1.7590942 -3.7896729 2.6386414 -6.9613037 2.6386414c-3.1221924 0 -5.4002686 -0.93252563 -6.8342285 -2.7975922c-1.43396 -1.8650513 -2.15094 -4.99115 -2.15094 -9.378296c0 -3.9491272 0.7276001 -6.803238 2.1827393 -8.562317c1.4551392 -1.7590942 3.7437744 -2.6386414 6.865967 -2.6386414zm0.5827637 -5.1395264c-5.1636353 0 -9.144043 1.4871063 -11.941284 4.461319c-2.7973022 2.9742126 -4.195923 7.1953278 -4.195923 12.663345c0 5.2490234 1.2997437 9.307648 3.899231 12.175888c2.6065063 2.8611755 6.3185425 4.2917633 11.136047 4.2917633c5.163574 0 9.144043 -1.5189056 11.941284 -4.5566864c2.8043213 -3.037796 4.206482 -7.378998 4.206482 -13.023651c0 -5.0794525 -1.3138428 -9.01799 -3.9415894 -11.815582c-2.6276855 -2.7975922 -6.3291016 -4.196396 -11.104248 -4.196396z" fill-rule="evenodd"/><path fill="#666666" d="m773.88654 216.37349c2.1261597 0.09184265 3.708496 0.56163025 4.746826 1.4093933c1.0454712 0.840683 1.5681763 2.1511688 1.5681763 3.9314575c0 3.299179 -1.7129517 5.4468384 -5.138916 6.4429474l-5.66864 -0.19075012l0.20129395 -11.455292l4.29126 -0.13775635zm1.8224487 -4.81102l-12.365112 0.063583374l0.26489258 22.847015l-0.26489258 9.7703705l6.251404 0l-0.26489258 -10.35321l0 -0.9113312l5.732239 -0.063583374c1.2997437 2.345459 3.5354614 6.079117 6.7070923 11.200958l0.9747925 0.58283997c1.6882324 -0.12716675 3.6625977 -0.5192566 5.9229736 -1.1762695l0.06359863 -0.7735748c-3.1646118 -3.9067383 -6.0077515 -7.749893 -8.529541 -11.529465c2.0838013 -1.1303406 3.701416 -2.5609283 4.852844 -4.2917633c1.1513672 -1.7378998 1.7270508 -3.6700745 1.7270508 -5.796524c0 -3.037796 -0.9677124 -5.39032 -2.9031982 -7.0575714c-1.9284058 -1.6743164 -4.6514893 -2.5114746 -8.1692505 -2.5114746z" fill-rule="evenodd"/><path fill="#666666" d="m791.20557 211.62605l-0.4555664 5.0123596l0.4555664 0.51924133l6.4421997 -0.45565796l2.670105 0l0.12713623 17.771072l-0.25427246 9.7703705l6.251404 0l-0.20129395 -10.35321l0.13775635 -17.188232l2.7336426 0l6.3150635 0.45565796l0.3814087 -5.0123444l-0.3178711 -0.5192566z" fill-rule="evenodd"/><path fill="#666666" d="m834.0366 211.23396c-5.163574 0 -9.144043 1.4659119 -11.941284 4.3977356c-2.7972412 2.924759 -4.195862 7.099945 -4.195862 12.525589c0 5.298462 1.3209229 9.381821 3.9627686 12.250061c2.6489258 2.8611755 6.470398 4.2917633 11.464478 4.2917633c3.079834 0 6.074829 -0.6711426 8.985168 -2.0134277l0.51916504 -5.5421906l-0.6569214 -0.31791687c-1.1655273 0.8195038 -2.5076294 1.4694519 -4.026367 1.9498444c-1.5187378 0.47332764 -3.0162354 0.70999146 -4.4925537 0.70999146c-2.9950562 0 -5.2766724 -1.0067139 -6.8447876 -3.0201263c-1.5610962 -2.0204773 -2.3416748 -4.984085 -2.3416748 -8.890839c0 -7.4673157 2.9950562 -11.200958 8.985168 -11.200958c1.5186768 0 2.984436 0.2401886 4.397156 0.72058105c1.4127808 0.48039246 2.659546 1.1303406 3.7402954 1.9498444l0.5827637 -0.19075012l1.1760864 -5.531601c-2.6489258 -1.3917236 -5.753418 -2.0876007 -9.313599 -2.0876007z" fill-rule="evenodd"/><path fill="#666666" d="m849.47406 211.62605l0.19067383 16.404068l-0.0635376 5.0123596c-0.08477783 3.7371826 0.9995117 6.6160126 3.2528687 8.636505c2.260376 2.0134125 5.559204 3.0201263 9.896301 3.0201263c4.3866577 0 7.7702026 -1.0208435 10.150696 -3.0625153c2.3875122 -2.0416718 3.5601196 -4.9063873 3.5177612 -8.594116l0.0635376 -4.81102l0.20135498 -16.605408l-6.3150635 0l0.2543335 20.441498c0.049438477 2.4726257 -0.57928467 4.3270874 -1.8860474 5.5634003c-1.2997437 1.2363129 -3.2069702 1.8544617 -5.7216797 1.8544617c-5.0788574 0 -7.597046 -2.4726257 -7.5546875 -7.417862l0.3284912 -20.441498z" fill-rule="evenodd"/><path fill="#666666" d="m883.3217 211.62605l-0.45562744 5.0123596l0.45562744 0.51924133l6.4421387 -0.45565796l2.670105 0l0.12713623 17.771072l-0.25427246 9.7703705l6.251465 0l-0.20135498 -10.35321l0.13775635 -17.188232l2.7337036 0l6.3150024 0.45565796l0.3814087 -5.0123444l-0.3178711 -0.5192566z" fill-rule="evenodd"/><path fill="#666666" d="m924.659 211.23396c-2.4299316 0 -4.5667114 0.43447876 -6.4103394 1.303421c-1.8436279 0.8689575 -3.2564087 2.041687 -4.2382812 3.5181885c-0.9747925 1.4765167 -1.4622192 3.1260986 -1.4622192 4.9487762c0 1.730835 0.42382812 3.1932068 1.2714844 4.3871307c0.84765625 1.193924 1.8789673 2.151184 3.093933 2.8717804c1.2149658 0.71351624 2.7548828 1.4835663 4.619751 2.3101196c2.0838013 0.8689575 3.6237183 1.6601868 4.61969 2.3737183c1.0030518 0.7135315 1.5045776 1.656662 1.5045776 2.8293915c0 1.1727295 -0.49090576 2.1617737 -1.4727783 2.9671326c-0.9747925 0.7983093 -2.2427979 1.197464 -3.803833 1.197464c-1.43396 0 -3.0092163 -0.35676575 -4.725708 -1.0702972c-1.7094116 -0.7135315 -3.19281 -1.6990356 -4.4501343 -2.956543l-0.72052 0.381485l-0.84765625 6.3157806c1.6105347 0.69940186 3.281128 1.2221832 5.0117188 1.5683441c1.7377319 0.34617615 3.387085 0.5192566 4.948181 0.5192566c2.6065674 0 4.831604 -0.46626282 6.675293 -1.3988037c1.8436279 -0.93252563 3.2316895 -2.1582336 4.1640625 -3.6771393c0.9324341 -1.5188904 1.3986206 -3.1684723 1.3986206 -4.948761c0 -1.7378998 -0.4343872 -3.193222 -1.3032227 -4.3659515c-0.8618164 -1.1727142 -1.8895874 -2.1158447 -3.083374 -2.8293762c-1.1937866 -0.7135315 -2.768982 -1.4835663 -4.725647 -2.310135c-2.0838013 -0.86894226 -3.6131592 -1.6601868 -4.5879517 -2.3737183c-0.9747925 -0.72058105 -1.4621582 -1.6213226 -1.4621582 -2.7022095c0 -1.0879669 0.46618652 -2.041687 1.3986206 -2.8611755c0.9324341 -0.8265686 2.2003784 -1.2398529 3.803833 -1.2398529c2.260376 0 4.647949 0.99612427 7.1626587 2.9883423l0.9747925 -0.19075012l0.9854126 -5.923691c-2.783142 -1.0879517 -5.562744 -1.6319275 -8.338806 -1.6319275z" fill-rule="evenodd"/></g></svg>